<mxfile host="Electron" modified="2024-10-03T10:37:13.843Z" agent="Mozilla/5.0 (Macintosh; Intel Mac OS X 10_15_7) AppleWebKit/537.36 (KHTML, like Gecko) draw.io/24.0.4 Chrome/120.0.6099.109 Electron/28.1.0 Safari/537.36" etag="74o-ydBuX3f12zAhFeVB" version="24.0.4" type="device">
  <diagram name="Page-1" id="UFLP23sNDzNurkFSy1rj">
    <mxGraphModel dx="2129" dy="1102" grid="1" gridSize="10" guides="1" tooltips="1" connect="1" arrows="1" fold="1" page="1" pageScale="1" pageWidth="850" pageHeight="1100" math="0" shadow="0">
      <root>
        <mxCell id="0" />
        <mxCell id="1" parent="0" />
        <mxCell id="NlnUNt_2MzWAzlFYxS39-1" value="" style="rounded=0;whiteSpace=wrap;html=1;fontFamily=IBM Plex Sans;fontSource=fonts%2FIBMPlexSans-Regular.woff;fontSize=14;spacingBottom=-28;spacingTop=0;labelPosition=-100;verticalLabelPosition=top;align=center;verticalAlign=bottom;spacingLeft=9;spacing=0;expand=0;recursiveResize=0;spacingRight=0;container=1;collapsible=0;" vertex="1" parent="1">
          <mxGeometry x="120" y="150" width="860" height="680" as="geometry">
            <mxRectangle width="670" as="alternateBounds" />
          </mxGeometry>
        </mxCell>
        <mxCell id="NlnUNt_2MzWAzlFYxS39-2" value="" style="rounded=0;whiteSpace=wrap;html=1;strokeColor=none;fillColor=#1192E8;" vertex="1" parent="NlnUNt_2MzWAzlFYxS39-1">
          <mxGeometry width="4" height="48" as="geometry" />
        </mxCell>
        <mxCell id="NlnUNt_2MzWAzlFYxS39-3" value="IBM Cloud" style="text;html=1;strokeColor=none;fillColor=none;align=left;verticalAlign=middle;whiteSpace=wrap;rounded=0;fontFamily=IBM Plex Sans;fontSource=fonts%2FIBMPlexSans-Regular.woff;fontSize=14;" vertex="1" parent="NlnUNt_2MzWAzlFYxS39-1">
          <mxGeometry x="51" y="8" width="163" height="20" as="geometry" />
        </mxCell>
        <mxCell id="NlnUNt_2MzWAzlFYxS39-4" value="" style="shape=image;image=data:image/svg+xml,PD94bWwgdmVyc2lvbj0iMS4wIiBlbmNvZGluZz0iVVRGLTgiPz4KPHN2ZyB3aWR0aD0iMzNweCIgaGVpZ2h0PSIzMXB4IiB2aWV3Qm94PSIwIDAgMzMgMzEiIHZlcnNpb249IjEuMSIgeG1sbnM9Imh0dHA6Ly93d3cudzMub3JnLzIwMDAvc3ZnIiB4bWxuczp4bGluaz0iaHR0cDovL3d3dy53My5vcmcvMTk5OS94bGluayI+CiAgICA8IS0tIEdlbmVyYXRvcjogU2tldGNoIDUzICg3MjUyMCkgLSBodHRwczovL3NrZXRjaGFwcC5jb20gLS0+CiAgICA8dGl0bGU+SUJNIENsb3VkIEJsYWNrPC90aXRsZT4KICAgIDxkZXNjPkNyZWF0ZWQgd2l0aCBTa2V0Y2guPC9kZXNjPgogICAgPGcgaWQ9IlBhZ2UtMSIgc3Ryb2tlPSJub25lIiBzdHJva2Utd2lkdGg9IjEiIGZpbGw9Im5vbmUiIGZpbGwtcnVsZT0iZXZlbm9kZCI+CiAgICAgICAgPGcgaWQ9IklCTS1DbG91ZC1CbGFjayIgdHJhbnNmb3JtPSJ0cmFuc2xhdGUoMC43ODQ3MjIsIDAuNTAwMTI1KSIgZmlsbD0iIzAwMDAwMCI+CiAgICAgICAgICAgIDxwYXRoIGQ9Ik0yNy4xMDIxLDI3LjAxMDYgQzI1Ljg3MDEsMjcuODc5NiAyNC4zNjExLDI4LjI2NzYgMjIuODUzMSwyOC4yNjc2IEw3LjAwNDEsMjguMjY3NiBDNC4xMTIxLDI4LjI3NDYgMS43NjIxLDI1LjkzNDYgMS43NTUxLDIzLjA0MjYgQzEuNzQ5MSwyMC40MTA2IDMuNjk3MSwxOC4xODM2IDYuMzA1MSwxNy44Mzg2IEM2LjQxMTEsMTkuMTYxNiA2Ljc4NzEsMjAuNDQ5NiA3LjQwOTEsMjEuNjIxNiBDNy41OTUxLDIxLjk5MTYgOC4wNDYxLDIyLjE0MDYgOC40MTYxLDIxLjk1NDYgQzguNzg2MSwyMS43Njc2IDguOTM1MSwyMS4zMTc2IDguNzQ4MSwyMC45NDc2IEw4LjczMDEsMjAuOTEyNiBDNy4xMzIxLDE3LjkzNTYgNy40MjkxLDE0LjIxNzYgOS42NzIxLDExLjY4OTYgQzEzLjQ4NjEsNy4zOTI2IDE5Ljc4NzEsOC4wNTI2IDIyLjc1NzEsMTIuMjgxNiBDMjAuMzM0MSwxMi4zNDc2IDE4LjA0NzEsMTMuNDE1NiAxNi40NDExLDE1LjIzMDYgQzE2LjE2MTEsMTUuNTM1NiAxNi4xODExLDE2LjAxMDYgMTYuNDg1MSwxNi4yOTA2IEMxNi43ODkxLDE2LjU3MTYgMTcuMjY0MSwxNi41NTI2IDE3LjU0NTEsMTYuMjQ3NiBMMTcuNTY2MSwxNi4yMjI2IEMxOS41OTUxLDEzLjkyMzYgMjIuODg0MSwxMy4wNTI2IDI1LjcwMzEsMTQuMjYzNiBDMzEuMTY1MSwxNi42MDk2IDMxLjgxMDEsMjMuNjkyNiAyNy4xMDIxLDI3LjAxMDYgTTI0LjU4NTEsMTIuOTE3NiBDMjIuMDU0MSw4LjE3NTYgMTYuMTU5MSw2LjM4MjYgMTEuNDE2MSw4LjkxMzYgQzguNDY1MSwxMC40ODg2IDYuNTI5MSwxMy40Njg2IDYuMjkwMSwxNi44MDY2IEMyLjU4NDEsMTcuMjA0NiAtMC4wOTc5LDIwLjUzMjYgMC4zMDExLDI0LjIzOTYgQzAuNjY5MSwyNy42NjU2IDMuNTU5MSwzMC4yNjM2IDcuMDA0MSwzMC4yNjc2IEwyMy4wMDQxLDMwLjI2NzYgQzI3LjgzNTEsMzAuMjcwNiAzMS43NTMxLDI2LjM1NzYgMzEuNzU2MSwyMS41MjY2IEMzMS43NTkxLDE3LjMwMTYgMjguNzQxMSwxMy42Nzg2IDI0LjU4NTEsMTIuOTE3NiIgaWQ9IkZpbGwtMSI+PC9wYXRoPgogICAgICAgICAgICA8ZyBpZD0iR3JvdXAtNSIgdHJhbnNmb3JtPSJ0cmFuc2xhdGUoMjcuMDAwMDAwLCA4LjI2NzcwMCkiPgogICAgICAgICAgICAgICAgPHBhdGggZD0iTTQuOTAyOCwwLjkxOTcgQzQuNjkzOCwwLjU1NjcgNC4yMjk4LDAuNDMyNyAzLjg2NjgsMC42NDE3IEMzLjg2NjgsMC42NDE3IDMuODY2OCwwLjY0MTcgMy44NjY4LDAuNjQyNyBMMC44NDY4LDIuMzg1NyBDMC40Nzg4LDIuNTg2NyAwLjM0MzgsMy4wNDc3IDAuNTQ0OCwzLjQxNTcgQzAuNzQ1OCwzLjc4MzcgMS4yMDY4LDMuOTE4NyAxLjU3NDgsMy43MTc3IEMxLjU4NDgsMy43MTE3IDEuNTk0OCwzLjcwNTcgMS42MDQ4LDMuNjk5NyBMNC42MjQ4LDEuOTU2NyBDNC45ODc4LDEuNzQ2NyA1LjExMTgsMS4yODI3IDQuOTAyOCwwLjkxOTciIGlkPSJGaWxsLTMiPjwvcGF0aD4KICAgICAgICAgICAgPC9nPgogICAgICAgICAgICA8cGF0aCBkPSJNMjIuNjgxMiw2LjgwMjYgQzIzLjA0MzIsNy4wMTI2IDIzLjUwNzIsNi44ODg2IDIzLjcxNzIsNi41MjU2IEwyMy43MTcyLDYuNTI1NiBMMjUuNDYxMiwzLjUwNTYgQzI1LjY2ODIsMy4xNDA2IDI1LjU0MDIsMi42Nzc2IDI1LjE3NjIsMi40NzA2IEMyNC44MTUyLDIuMjY2NiAyNC4zNTcyLDIuMzg4NiAyNC4xNDcyLDIuNzQ2NiBMMjIuNDAzMiw1Ljc2NjYgQzIyLjE5NDIsNi4xMjk2IDIyLjMxODIsNi41OTM2IDIyLjY4MTIsNi44MDI2IiBpZD0iRmlsbC02Ij48L3BhdGg+CiAgICAgICAgICAgIDxwYXRoIGQ9Ik0xNi4wMDQ0LDUuMDE0MSBDMTYuNDIzNCw1LjAxNDEgMTYuNzYzNCw0LjY3NDEgMTcuMzM1NCw0LjI1NTEgTDE3LjMzNTQsMC43NjcxIEMxNi43Njg0LDAuMzQ4MSAxNi40MzI0LDAuMDA1MSAxNi4wMTM0LDAuMDAwMSBDMTUuNTk0NCwtMC4wMDQ5IDE1LjI1MTQsMC4zMzExIDE1LjMzNTQsMC43NTAxIEwxNS4zMzU0LDAuNzY3MSBMMTUuMzM1NCw0LjI1NTEgQzE1LjI0NjQsNC42NzQxIDE1LjU4NTQsNS4wMTQxIDE2LjAwNDQsNS4wMTQxIiBpZD0iRmlsbC04Ij48L3BhdGg+CiAgICAgICAgICAgIDxwYXRoIGQ9Ik04LjI5Miw2LjUyNDggQzguNTA0LDYuODg1OCA4Ljk2OSw3LjAwNjggOS4zMzEsNi43OTQ4IEM5LjY4OCw2LjU4NDggOS44MTEsNi4xMjY4IDkuNjA2LDUuNzY1OCBMNy44NjIsMi43NDU4IEM3LjY1NSwyLjM4MTggNy4xOTIsMi4yNTM4IDYuODI4LDIuNDYwOCBDNi40NjMsMi42Njc4IDYuMzM1LDMuMTMwOCA2LjU0MiwzLjQ5NDggQzYuNTQ0LDMuNDk4OCA2LjU0NiwzLjUwMTggNi41NDgsMy41MDQ4IEw4LjI5Miw2LjUyNDggWiIgaWQ9IkZpbGwtMTAiPjwvcGF0aD4KICAgICAgICAgICAgPGcgaWQ9Ikdyb3VwLTE0IiB0cmFuc2Zvcm09InRyYW5zbGF0ZSgwLjAwMDAwMCwgOC4yNjc3MDApIj4KICAgICAgICAgICAgICAgIDxwYXRoIGQ9Ik00LjE2MzEsMi4zODYgTDEuMTQzMSwwLjY0MiBDMC43ODIxLDAuNDMgMC4zMTcxLDAuNTUxIDAuMTA0MSwwLjkxMiBDLTAuMTA3OSwxLjI3MyAwLjAxMzEsMS43MzkgMC4zNzQxLDEuOTUgQzAuMzc4MSwxLjk1MiAwLjM4MTEsMS45NTQgMC4zODQxLDEuOTU2IEwzLjQwNTEsMy43IEMzLjc2NjEsMy45MTIgNC4yMzExLDMuNzkxIDQuNDQzMSwzLjQzIEM0LjY1NTEsMy4wNjkgNC41MzUxLDIuNjA0IDQuMTczMSwyLjM5MiBDNC4xNzAxLDIuMzkgNC4xNjYxLDIuMzg4IDQuMTYzMSwyLjM4NiBaIiBpZD0iRmlsbC0xMiI+PC9wYXRoPgogICAgICAgICAgICA8L2c+CiAgICAgICAgPC9nPgogICAgPC9nPgo8L3N2Zz4=;" vertex="1" parent="NlnUNt_2MzWAzlFYxS39-1">
          <mxGeometry x="15" y="7" width="24" height="24" as="geometry" />
        </mxCell>
        <mxCell id="NlnUNt_2MzWAzlFYxS39-5" value="" style="rounded=0;whiteSpace=wrap;html=1;fontFamily=IBM Plex Sans;fontSource=fonts%2FIBMPlexSans-Regular.woff;fontSize=14;spacingBottom=-28;spacingTop=0;labelPosition=-100;verticalLabelPosition=top;align=center;verticalAlign=bottom;spacingLeft=9;spacing=0;expand=0;recursiveResize=0;spacingRight=0;container=1;collapsible=0;strokeColor=#878d96;fillColor=none;" vertex="1" parent="NlnUNt_2MzWAzlFYxS39-1">
          <mxGeometry x="39" y="48" width="671" height="602" as="geometry">
            <mxRectangle width="670" as="alternateBounds" />
          </mxGeometry>
        </mxCell>
        <mxCell id="NlnUNt_2MzWAzlFYxS39-6" value="" style="rounded=0;whiteSpace=wrap;html=1;strokeColor=none;fillColor=#878d96;" vertex="1" parent="NlnUNt_2MzWAzlFYxS39-5">
          <mxGeometry width="4" height="48" as="geometry" />
        </mxCell>
        <mxCell id="NlnUNt_2MzWAzlFYxS39-7" value="Region" style="text;html=1;strokeColor=none;fillColor=none;align=left;verticalAlign=middle;whiteSpace=wrap;rounded=0;fontFamily=IBM Plex Sans;fontSource=fonts%2FIBMPlexSans-Regular.woff;fontSize=14;" vertex="1" parent="NlnUNt_2MzWAzlFYxS39-5">
          <mxGeometry x="51" y="8" width="168" height="20" as="geometry" />
        </mxCell>
        <mxCell id="NlnUNt_2MzWAzlFYxS39-8" style="edgeStyle=orthogonalEdgeStyle;rounded=0;orthogonalLoop=1;jettySize=auto;html=1;exitX=0;exitY=0.5;exitDx=0;exitDy=0;entryX=1.009;entryY=0.22;entryDx=0;entryDy=0;entryPerimeter=0;fontFamily=IBM Plex Sans;fontSource=fonts%2FIBMPlexSans-Regular.woff;fontSize=14;startArrow=oval;startFill=1;strokeColor=#198038;" edge="1" parent="NlnUNt_2MzWAzlFYxS39-5">
          <mxGeometry relative="1" as="geometry" />
        </mxCell>
        <mxCell id="NlnUNt_2MzWAzlFYxS39-9" value="" style="shape=image;image=data:image/svg+xml,PD94bWwgdmVyc2lvbj0iMS4wIiBlbmNvZGluZz0iVVRGLTgiPz4KPHN2ZyB3aWR0aD0iMjNweCIgaGVpZ2h0PSIyOHB4IiB2aWV3Qm94PSIwIDAgMjMgMjgiIHZlcnNpb249IjEuMSIgeG1sbnM9Imh0dHA6Ly93d3cudzMub3JnLzIwMDAvc3ZnIiB4bWxuczp4bGluaz0iaHR0cDovL3d3dy53My5vcmcvMTk5OS94bGluayI+CiAgICA8IS0tIEdlbmVyYXRvcjogU2tldGNoIDUzICg3MjUyMCkgLSBodHRwczovL3NrZXRjaGFwcC5jb20gLS0+CiAgICA8dGl0bGU+UmVnaW9uIEJsYWNrPC90aXRsZT4KICAgIDxkZXNjPkNyZWF0ZWQgd2l0aCBTa2V0Y2guPC9kZXNjPgogICAgPGcgaWQ9IlBhZ2UtMSIgc3Ryb2tlPSJub25lIiBzdHJva2Utd2lkdGg9IjEiIGZpbGw9Im5vbmUiIGZpbGwtcnVsZT0iZXZlbm9kZCI+CiAgICAgICAgPGcgaWQ9IlJlZ2lvbi1CbGFjayIgdHJhbnNmb3JtPSJ0cmFuc2xhdGUoMC4xMjUwMDAsIDAuMDAwMDAwKSIgZmlsbD0iIzAwMDAwMCI+CiAgICAgICAgICAgIDxwYXRoIGQ9Ik0xMS4wMDAyLDggQzkuMzQzMiw4IDguMDAwMiw5LjM0MyA4LjAwMDIsMTEgQzguMDAwMiwxMi42NTcgOS4zNDMyLDE0IDExLjAwMDIsMTQgQzEyLjY1NzIsMTQgMTQuMDAwMiwxMi42NTcgMTQuMDAwMiwxMSBDMTMuOTk4Miw5LjM0NCAxMi42NTYyLDguMDAyIDExLjAwMDIsOCBNMTEuMDAwMiwxNiBDOC4yMzgyLDE2IDYuMDAwMiwxMy43NjEgNi4wMDAyLDExIEM2LjAwMDIsOC4yMzkgOC4yMzgyLDYgMTEuMDAwMiw2IEMxMy43NjEyLDYgMTYuMDAwMiw4LjIzOSAxNi4wMDAyLDExIEMxNS45OTcyLDEzLjc2IDEzLjc2MDIsMTUuOTk3IDExLjAwMDIsMTYiIGlkPSJGaWxsLTEiPjwvcGF0aD4KICAgICAgICAgICAgPGcgaWQ9Ikdyb3VwLTUiPgogICAgICAgICAgICAgICAgPHBhdGggZD0iTTMuODEyNywxNi4zOTUgQzMuODEzNywxNi4zOTUgNC4wNDU3LDE2LjcwMyA0LjA5ODcsMTYuNzcgTDEwLjk5OTcsMjQuOTA4IEwxNy45MTA3LDE2Ljc1OCBDMTcuOTU0NywxNi43MDMgMTguMTg4NywxNi4zOTMgMTguMTg4NywxNi4zOTIgQzE5LjM2NjcsMTQuODQxIDIwLjAwMTcsMTIuOTQ3IDE5Ljk5OTcsMTEgQzE5Ljk5OTcsNi4wMjkgMTUuOTcwNywyIDEwLjk5OTcsMiBDNi4wMjk3LDIgMi4wMDA3LDYuMDI5IDIuMDAwNywxMSBDMS45OTc3LDEyLjk0OCAyLjYzNDcsMTQuODQzIDMuODEyNywxNi4zOTUgTDMuODEyNywxNi4zOTUgWiBNMTAuOTk5NywyOCBMMi41NjQ3LDE4LjA1MSBDMi41MTY3LDE3Ljk5NCAyLjIxNjcsMTcuNiAyLjIxNjcsMTcuNiBDMC43NzQ3LDE1LjcwMiAtMC4wMDMzLDEzLjM4MyAtMC4wMDAzLDExIEMtMC4wMDAzLDQuOTI1IDQuOTI0NywwIDEwLjk5OTcsMCBDMTcuMDc1NywwIDIxLjk5OTcsNC45MjUgMjEuOTk5NywxMSBDMjIuMDAyNywxMy4zODIgMjEuMjI1NywxNS43IDE5Ljc4NTcsMTcuNTk3IEwxOS43ODM3LDE3LjYgQzE5Ljc4MzcsMTcuNiAxOS40ODM3LDE3Ljk5NCAxOS40Mzg3LDE4LjA0NyBMMTAuOTk5NywyOCBaIiBpZD0iRmlsbC0zIj48L3BhdGg+CiAgICAgICAgICAgIDwvZz4KICAgICAgICA8L2c+CiAgICA8L2c+Cjwvc3ZnPg==;" vertex="1" parent="NlnUNt_2MzWAzlFYxS39-5">
          <mxGeometry x="19.66" y="8" width="24" height="24" as="geometry" />
        </mxCell>
        <mxCell id="NlnUNt_2MzWAzlFYxS39-10" value="" style="rounded=0;whiteSpace=wrap;html=1;fontFamily=IBM Plex Sans;fontSource=fonts%2FIBMPlexSans-Regular.woff;fontSize=14;spacingBottom=-28;spacingTop=0;labelPosition=-100;verticalLabelPosition=top;align=center;verticalAlign=bottom;spacingLeft=9;spacing=0;expand=0;recursiveResize=0;spacingRight=0;container=1;collapsible=0;strokeColor=#6c8ebf;fillColor=#dae8fc;" vertex="1" parent="NlnUNt_2MzWAzlFYxS39-5">
          <mxGeometry x="43.66" y="52" width="576.34" height="518" as="geometry">
            <mxRectangle width="670" as="alternateBounds" />
          </mxGeometry>
        </mxCell>
        <mxCell id="NlnUNt_2MzWAzlFYxS39-11" value="" style="rounded=0;whiteSpace=wrap;html=1;strokeColor=none;fillColor=#1192E8;" vertex="1" parent="NlnUNt_2MzWAzlFYxS39-10">
          <mxGeometry width="4" height="48" as="geometry" />
        </mxCell>
        <mxCell id="NlnUNt_2MzWAzlFYxS39-12" value="VPC" style="text;html=1;strokeColor=none;fillColor=none;align=left;verticalAlign=middle;whiteSpace=wrap;rounded=0;fontFamily=IBM Plex Sans;fontSource=fonts%2FIBMPlexSans-Regular.woff;fontSize=14;" vertex="1" parent="NlnUNt_2MzWAzlFYxS39-10">
          <mxGeometry x="51" y="8" width="163" height="20" as="geometry" />
        </mxCell>
        <mxCell id="NlnUNt_2MzWAzlFYxS39-13" value="" style="shape=image;image=data:image/svg+xml,PD94bWwgdmVyc2lvbj0iMS4wIiBlbmNvZGluZz0iVVRGLTgiPz4KPHN2ZyB3aWR0aD0iMjlweCIgaGVpZ2h0PSIyOHB4IiB2aWV3Qm94PSIwIDAgMjkgMjgiIHZlcnNpb249IjEuMSIgeG1sbnM9Imh0dHA6Ly93d3cudzMub3JnLzIwMDAvc3ZnIiB4bWxuczp4bGluaz0iaHR0cDovL3d3dy53My5vcmcvMTk5OS94bGluayI+CiAgICA8IS0tIEdlbmVyYXRvcjogU2tldGNoIDUzICg3MjUyMCkgLSBodHRwczovL3NrZXRjaGFwcC5jb20gLS0+CiAgICA8dGl0bGU+SUJNIFZQQyBCbGFjazwvdGl0bGU+CiAgICA8ZGVzYz5DcmVhdGVkIHdpdGggU2tldGNoLjwvZGVzYz4KICAgIDxnIGlkPSJQYWdlLTEiIHN0cm9rZT0ibm9uZSIgc3Ryb2tlLXdpZHRoPSIxIiBmaWxsPSJub25lIiBmaWxsLXJ1bGU9ImV2ZW5vZGQiPgogICAgICAgIDxnIGlkPSJJQk0tVlBDLUJsYWNrIiB0cmFuc2Zvcm09InRyYW5zbGF0ZSgwLjc1MDAwMCwgLTEuMDAwMDAwKSIgZmlsbD0iIzAwMDAwMCI+CiAgICAgICAgICAgIDxwYXRoIGQ9Ik0wLjAwMDksMS4wMDAyIEwwLjAwMDksOS4wMDAyIEw2LjU4NjksOS4wMDAyIEwyMC4wMDA5LDIyLjQxNDIgTDIwLjAwMDksMjkuMDAwMiBMMjguMDAwOSwyOS4wMDAyIEwyOC4wMDA5LDIxLjAwMDIgTDIxLjQxNTksMjEuMDAwMiBMOC4wMDA5LDcuNTg1MiBMOC4wMDA5LDEuMDAwMiBMMC4wMDA5LDEuMDAwMiBaIE0yLjAwMDksNy4wMDAyIEw2LjAwMDksNy4wMDAyIEw2LjAwMDksMy4wMDAyIEwyLjAwMDksMy4wMDAyIEwyLjAwMDksNy4wMDAyIFogTTIyLjAwMDksMjcuMDAxMiBMMjYuMDAxOSwyNy4wMDEyIEwyNi4wMDE5LDIzLjAwMDIgTDIyLjAwMDksMjMuMDAwMiBMMjIuMDAwOSwyNy4wMDEyIFoiIGlkPSJGaWxsLTEiPjwvcGF0aD4KICAgICAgICAgICAgPGcgaWQ9Ikdyb3VwLTgiIHRyYW5zZm9ybT0idHJhbnNsYXRlKDAuMDAwMDAwLCAwLjAwMTkwMCkiPgogICAgICAgICAgICAgICAgPGcgaWQ9Ikdyb3VwLTQiIHRyYW5zZm9ybT0idHJhbnNsYXRlKDExLjAwMDAwMCwgMC4wMDAwMDApIj4KICAgICAgICAgICAgICAgICAgICA8cGF0aCBkPSJNMTIuNjQ2Nyw2LjgxNzkgQzExLjU0MjcsNi44MTc5IDEwLjY0NjcsNS45MjI5IDEwLjY0NjcsNC44MTc5IEMxMC42NDY3LDMuNzEzOSAxMS41NDI3LDIuODE3OSAxMi42NDY3LDIuODE3OSBDMTMuNzUwNywyLjgxNzkgMTQuNjQ2NywzLjcxMzkgMTQuNjQ2Nyw0LjgxNzkgQzE0LjY0NTcsNS45MjE5IDEzLjc1MDcsNi44MTY5IDEyLjY0NjcsNi44MTc5IE0xNi43MzM3LDMuNTE4OSBDMTYuMzU2NywyLjQ5ODkgMTUuNTMxNywxLjY2NzkgMTQuNTE1NywxLjI4MDkgQzEyLjEyNzcsMC4zNzA5IDkuNzE3NywxLjc1NTkgOS4xNDI3LDMuOTk3OSBMMC4wMDA3LDMuOTk3OSBMMC4wMDA3LDUuOTk3OSBMOS4xNDI3LDUuOTk3OSBDOS41MDc3LDcuMzk3OSAxMC42MDE3LDguNDkwOSAxMi4wMDA3LDguODU1OSBMMTIuMDAwNywxNy45OTc5IEwxNC4wMDA3LDE3Ljk5NzkgTDE0LjAwMDcsOC44NTU5IEMxNi4yMjk3LDguMjgxOSAxNy42MTE3LDUuODk2OSAxNi43MzM3LDMuNTE4OSIgaWQ9IkZpbGwtMiI+PC9wYXRoPgogICAgICAgICAgICAgICAgPC9nPgogICAgICAgICAgICAgICAgPGcgaWQ9Ikdyb3VwLTciIHRyYW5zZm9ybT0idHJhbnNsYXRlKDAuMDAwMDAwLCAxMS4wMDAwMDApIj4KICAgICAgICAgICAgICAgICAgICA8cGF0aCBkPSJNMy42NDY3LDE1LjgxNzkgQzIuNTQyNywxNS44MTc5IDEuNjQ2NywxNC45MjI5IDEuNjQ2NywxMy44MTc5IEMxLjY0NjcsMTIuNzEzOSAyLjU0MjcsMTEuODE3OSAzLjY0NjcsMTEuODE3OSBDNC43NTA3LDExLjgxNzkgNS42NDY3LDEyLjcxMzkgNS42NDY3LDEzLjgxNzkgQzUuNjQ1NywxNC45MjE5IDQuNzUwNywxNS44MTY5IDMuNjQ2NywxNS44MTc5IEwzLjY0NjcsMTUuODE3OSBaIE0xNy4wMDA3LDEyLjk5NzkgTDcuODU4NywxMi45OTc5IEM3LjQ5MzcsMTEuNTk3OSA2LjQwMDcsMTAuNTA0OSA1LjAwMDcsMTAuMTM5OSBMNS4wMDA3LDAuOTk3OSBMMy4wMDA3LDAuOTk3OSBMMy4wMDA3LDEwLjEzOTkgQzAuNDg3NywxMC43ODQ5IC0wLjg1MTMsMTMuNjgzOSAwLjU5NDcsMTYuMTE5OSBDMS4xNTA3LDE3LjA1NTkgMi4xMTE3LDE3LjcyODkgMy4xODI3LDE3LjkyNjkgQzUuNDAyNywxOC4zMzc5IDcuMzUzNywxNi45Njk5IDcuODU4NywxNC45OTc5IEwxNy4wMDA3LDE0Ljk5NzkgTDE3LjAwMDcsMTIuOTk3OSBaIiBpZD0iRmlsbC01Ij48L3BhdGg+CiAgICAgICAgICAgICAgICA8L2c+CiAgICAgICAgICAgIDwvZz4KICAgICAgICA8L2c+CiAgICA8L2c+Cjwvc3ZnPg==;" vertex="1" parent="NlnUNt_2MzWAzlFYxS39-10">
          <mxGeometry x="17" y="9.849999999999909" width="24" height="24" as="geometry" />
        </mxCell>
        <mxCell id="NlnUNt_2MzWAzlFYxS39-14" value="" style="rounded=0;whiteSpace=wrap;html=1;fontFamily=IBM Plex Sans;fontSource=fonts%2FIBMPlexSans-Regular.woff;fontSize=14;spacingBottom=-28;spacingTop=0;labelPosition=-100;verticalLabelPosition=top;align=center;verticalAlign=bottom;spacingLeft=9;spacing=0;expand=0;recursiveResize=0;spacingRight=0;container=0;collapsible=0;strokeWidth=2;dashed=1;dashPattern=1 2;" vertex="1" parent="NlnUNt_2MzWAzlFYxS39-10">
          <mxGeometry x="51.34" y="48" width="478.66" height="442" as="geometry">
            <mxRectangle width="670" as="alternateBounds" />
          </mxGeometry>
        </mxCell>
        <mxCell id="NlnUNt_2MzWAzlFYxS39-15" value="Zone 1" style="text;html=1;strokeColor=none;fillColor=none;align=left;verticalAlign=middle;whiteSpace=wrap;rounded=0;fontFamily=IBM Plex Sans;fontSource=fonts%2FIBMPlexSans-Regular.woff;fontSize=14;" vertex="1" parent="NlnUNt_2MzWAzlFYxS39-14">
          <mxGeometry x="51" y="8" width="168" height="20" as="geometry" />
        </mxCell>
        <mxCell id="NlnUNt_2MzWAzlFYxS39-16" value="" style="shape=image;image=data:image/svg+xml,PD94bWwgdmVyc2lvbj0iMS4wIiBlbmNvZGluZz0iVVRGLTgiPz4KPHN2ZyB3aWR0aD0iMjlweCIgaGVpZ2h0PSIyNnB4IiB2aWV3Qm94PSIwIDAgMjkgMjYiIHZlcnNpb249IjEuMSIgeG1sbnM9Imh0dHA6Ly93d3cudzMub3JnLzIwMDAvc3ZnIiB4bWxuczp4bGluaz0iaHR0cDovL3d3dy53My5vcmcvMTk5OS94bGluayI+CiAgICA8IS0tIEdlbmVyYXRvcjogU2tldGNoIDUzICg3MjUyMCkgLSBodHRwczovL3NrZXRjaGFwcC5jb20gLS0+CiAgICA8dGl0bGU+Wm9uZSBCbGFjazwvdGl0bGU+CiAgICA8ZGVzYz5DcmVhdGVkIHdpdGggU2tldGNoLjwvZGVzYz4KICAgIDxnIGlkPSJQYWdlLTEiIHN0cm9rZT0ibm9uZSIgc3Ryb2tlLXdpZHRoPSIxIiBmaWxsPSJub25lIiBmaWxsLXJ1bGU9ImV2ZW5vZGQiPgogICAgICAgIDxnIGlkPSJab25lLUJsYWNrIiB0cmFuc2Zvcm09InRyYW5zbGF0ZSgwLjEyNTAwMCwgMC4wMDAwMDApIiBmaWxsPSIjMDAwMDAwIj4KICAgICAgICAgICAgPGcgaWQ9Ikdyb3VwLTMiPgogICAgICAgICAgICAgICAgPHBhdGggZD0iTTI2LjAwMDEsMjQuMDAwMSBMMjEuMDAwMSwyNC4wMDAxIEwyMS4wMDAxLDIwLjAwMDEgTDIzLjAwMDEsMjAuMDAwMSBMMjMuMDAwMSwxOC4wMDAxIEwyMS4wMDAxLDE4LjAwMDEgTDIxLjAwMDEsMTYuMDAwMSBMMjMuMDAwMSwxNi4wMDAxIEwyMy4wMDAxLDE0LjAwMDEgTDIxLjAwMDEsMTQuMDAwMSBMMjEuMDAwMSwxMi4wMDAxIEwyMy4wMDAxLDEyLjAwMDEgTDIzLjAwMDEsMTAuMDAwMSBMMjEuMDAwMSwxMC4wMDAxIEwyMS4wMDAxLDguMDAwMSBMMjYuMDAwMSw4LjAwMDEgTDI2LjAwMDEsMjQuMDAwMSBaIE05LjAwMDEsMjQuMDAwMSBMMTkuMDAwMSwyNC4wMDAxIEwxOS4wMDAxLDIuMDAwMSBMOS4wMDAxLDIuMDAwMSBMOS4wMDAxLDI0LjAwMDEgWiBNMi4wMDAxLDI0LjAwMDEgTDIuMDAwMSw4LjAwMDEgTDcuMDAwMSw4LjAwMDEgTDcuMDAwMSwxMC4wMDAxIEw1LjAwMDEsMTAuMDAwMSBMNS4wMDAxLDEyLjAwMDEgTDcuMDAwMSwxMi4wMDAxIEw3LjAwMDEsMTQuMDAwMSBMNS4wMDAxLDE0LjAwMDEgTDUuMDAwMSwxNi4wMDAxIEw3LjAwMDEsMTYuMDAwMSBMNy4wMDAxLDE4LjAwMDEgTDUuMDAwMSwxOC4wMDAxIEw1LjAwMDEsMjAuMDAwMSBMNy4wMDAxLDIwLjAwMDEgTDcuMDAwMSwyNC4wMDAxIEwyLjAwMDEsMjQuMDAwMSBaIE0yNi4wMDAxLDYuMDAwMSBMMjEuMDAwMSw2LjAwMDEgTDIxLjAwMDEsMi4wMDAxIEMyMC45OTkxLDAuODk2MSAyMC4xMDQxLDAuMDAxMSAxOS4wMDAxLDAuMDAwMSBMOS4wMDAxLDAuMDAwMSBDNy44OTYxLDAuMDAxMSA3LjAwMTEsMC44OTYxIDcuMDAwMSwyLjAwMDEgTDcuMDAwMSw2LjAwMDEgTDIuMDAwMSw2LjAwMDEgQzAuODk2MSw2LjAwMTEgMC4wMDExLDYuODk2MSAwLjAwMDEsOC4wMDAxIEwwLjAwMDEsMjQuMDAwMSBDMC4wMDExLDI1LjEwNDEgMC44OTYxLDI1Ljk5OTEgMi4wMDAxLDI2LjAwMDEgTDI2LjAwMDEsMjYuMDAwMSBDMjcuMTA0MSwyNS45OTkxIDI3Ljk5OTEsMjUuMTA0MSAyOC4wMDAxLDI0LjAwMDEgTDI4LjAwMDEsOC4wMDAxIEMyNy45OTkxLDYuODk2MSAyNy4xMDQxLDYuMDAxMSAyNi4wMDAxLDYuMDAwMSBMMjYuMDAwMSw2LjAwMDEgWiIgaWQ9IkZpbGwtMSI+PC9wYXRoPgogICAgICAgICAgICA8L2c+CiAgICAgICAgICAgIDxwb2x5Z29uIGlkPSJGaWxsLTQiIHBvaW50cz0iMTIgNiAxNiA2IDE2IDQgMTIgNCI+PC9wb2x5Z29uPgogICAgICAgICAgICA8cG9seWdvbiBpZD0iRmlsbC02IiBwb2ludHM9IjEyIDEwIDE2IDEwIDE2IDggMTIgOCI+PC9wb2x5Z29uPgogICAgICAgICAgICA8cG9seWdvbiBpZD0iRmlsbC03IiBwb2ludHM9IjEyIDE0IDE2IDE0IDE2IDEyIDEyIDEyIj48L3BvbHlnb24+CiAgICAgICAgPC9nPgogICAgPC9nPgo8L3N2Zz4=;" vertex="1" parent="NlnUNt_2MzWAzlFYxS39-14">
          <mxGeometry x="18" y="12.07" width="24" height="24" as="geometry" />
        </mxCell>
        <mxCell id="NlnUNt_2MzWAzlFYxS39-17" style="edgeStyle=orthogonalEdgeStyle;rounded=0;orthogonalLoop=1;jettySize=auto;html=1;exitX=0;exitY=0.5;exitDx=0;exitDy=0;entryX=1.009;entryY=0.22;entryDx=0;entryDy=0;entryPerimeter=0;fontFamily=IBM Plex Sans;fontSource=fonts%2FIBMPlexSans-Regular.woff;fontSize=14;startArrow=oval;startFill=1;strokeColor=#198038;" edge="1" parent="NlnUNt_2MzWAzlFYxS39-14">
          <mxGeometry relative="1" as="geometry" />
        </mxCell>
        <mxCell id="NlnUNt_2MzWAzlFYxS39-22" value="" style="rounded=0;whiteSpace=wrap;html=1;fontFamily=IBM Plex Sans;fontSource=fonts%2FIBMPlexSans-Regular.woff;fontSize=14;spacingBottom=-28;spacingTop=0;labelPosition=-100;verticalLabelPosition=top;align=center;verticalAlign=bottom;spacingLeft=9;spacing=0;expand=0;recursiveResize=0;spacingRight=0;container=1;collapsible=0;strokeColor=#1192E8;fillColor=none;" vertex="1" parent="NlnUNt_2MzWAzlFYxS39-14">
          <mxGeometry x="56" y="62" width="374" height="152" as="geometry">
            <mxRectangle width="670" as="alternateBounds" />
          </mxGeometry>
        </mxCell>
        <mxCell id="NlnUNt_2MzWAzlFYxS39-23" value="" style="rounded=0;whiteSpace=wrap;html=1;strokeColor=none;fillColor=#1192E8;" vertex="1" parent="NlnUNt_2MzWAzlFYxS39-22">
          <mxGeometry width="4" height="48" as="geometry" />
        </mxCell>
        <mxCell id="NlnUNt_2MzWAzlFYxS39-24" value="DMZ Subnet" style="text;html=1;strokeColor=none;fillColor=none;align=left;verticalAlign=middle;whiteSpace=wrap;rounded=0;fontFamily=IBM Plex Sans;fontSource=fonts%2FIBMPlexSans-Regular.woff;fontSize=14;" vertex="1" parent="NlnUNt_2MzWAzlFYxS39-22">
          <mxGeometry x="51" y="8" width="163" height="20" as="geometry" />
        </mxCell>
        <mxCell id="NlnUNt_2MzWAzlFYxS39-25" value="" style="shape=image;image=data:image/svg+xml,PD94bWwgdmVyc2lvbj0iMS4wIiBlbmNvZGluZz0iVVRGLTgiPz4KPHN2ZyB3aWR0aD0iMjlweCIgaGVpZ2h0PSIyOXB4IiB2aWV3Qm94PSIwIDAgMjkgMjkiIHZlcnNpb249IjEuMSIgeG1sbnM9Imh0dHA6Ly93d3cudzMub3JnLzIwMDAvc3ZnIiB4bWxuczp4bGluaz0iaHR0cDovL3d3dy53My5vcmcvMTk5OS94bGluayI+CiAgICA8IS0tIEdlbmVyYXRvcjogU2tldGNoIDUzICg3MjUyMCkgLSBodHRwczovL3NrZXRjaGFwcC5jb20gLS0+CiAgICA8dGl0bGU+SUJNIFN1Ym5ldCA6IEFDTCBCbGFjazwvdGl0bGU+CiAgICA8ZGVzYz5DcmVhdGVkIHdpdGggU2tldGNoLjwvZGVzYz4KICAgIDxnIGlkPSJQYWdlLTEiIHN0cm9rZT0ibm9uZSIgc3Ryb2tlLXdpZHRoPSIxIiBmaWxsPSJub25lIiBmaWxsLXJ1bGU9ImV2ZW5vZGQiPgogICAgICAgIDxnIGlkPSJJQk0tU3VibmV0LTotQUNMLUJsYWNrIiB0cmFuc2Zvcm09InRyYW5zbGF0ZSgwLjc1MDAwMCwgMC4wNzQ5NTkpIiBmaWxsPSIjMDAwMDAwIj4KICAgICAgICAgICAgPHBhdGggZD0iTTI0LjAxNjEsMjYuMjIyMSBDMjIuOTEyMSwyNi4yMjIxIDIyLjAxNjEsMjUuMzI2MSAyMi4wMTYxLDI0LjIyMjEgQzIyLjAxNjEsMjMuMTE4MSAyMi45MTIxLDIyLjIyMjEgMjQuMDE2MSwyMi4yMjIxIEMyNS4xMjAxLDIyLjIyMjEgMjYuMDE2MSwyMy4xMTgxIDI2LjAxNjEsMjQuMjIyMSBDMjYuMDEzMSwyNS4zMjUxIDI1LjExOTEsMjYuMjE5MSAyNC4wMTYxLDI2LjIyMjEgTTQuMDE2MSwyNi4yMjIxIEMyLjkxMjEsMjYuMjIyMSAyLjAxNjEsMjUuMzI2MSAyLjAxNjEsMjQuMjIyMSBDMi4wMTYxLDIzLjExODEgMi45MTIxLDIyLjIyMjEgNC4wMTYxLDIyLjIyMjEgQzUuMTIwMSwyMi4yMjIxIDYuMDE2MSwyMy4xMTgxIDYuMDE2MSwyNC4yMjIxIEM2LjAxMzEsMjUuMzI1MSA1LjExOTEsMjYuMjE5MSA0LjAxNjEsMjYuMjIyMSBNNC4wMTYxLDYuMjIyMSBDMi45MTIxLDYuMjIyMSAyLjAxNjEsNS4zMjYxIDIuMDE2MSw0LjIyMjEgQzIuMDE2MSwzLjExODEgMi45MTIxLDIuMjIyMSA0LjAxNjEsMi4yMjIxIEM1LjEyMDEsMi4yMjIxIDYuMDE2MSwzLjExODEgNi4wMTYxLDQuMjIyMSBDNi4wMTMxLDUuMzI1MSA1LjExOTEsNi4yMTkxIDQuMDE2MSw2LjIyMjEgTTI0LjAxNjEsMi4yMjIxIEMyNS4xMjAxLDIuMjIyMSAyNi4wMTYxLDMuMTE4MSAyNi4wMTYxLDQuMjIyMSBDMjYuMDE2MSw1LjMyNjEgMjUuMTIwMSw2LjIyMjEgMjQuMDE2MSw2LjIyMjEgQzIyLjkxMjEsNi4yMjIxIDIyLjAxNjEsNS4zMjYxIDIyLjAxNjEsNC4yMjIxIEMyMi4wMTkxLDMuMTE4MSAyMi45MTMxLDIuMjI1MSAyNC4wMTYxLDIuMjIyMSBNMjQuMDE2MSwyMC4wMDAxIEMyMy4zMDUxLDE5Ljk5ODEgMjIuNjA5MSwyMC4yMDcxIDIyLjAxNjEsMjAuNjAwMSBMMTcuNDMwMSwxNi4wMDAxIEwxNi4wMTYxLDE3LjQxNDEgTDIwLjYxNjEsMjIuMDAwMSBDMjAuNDQwMSwyMi4zMTQxIDIwLjMwNjEsMjIuNjUxMSAyMC4yMTYxLDIzLjAwMDEgTDcuODc0MSwyMy4wMDAxIEM3Ljc3NDEsMjIuNjQ1MSA3LjYyMDEsMjIuMzA3MSA3LjQxNjEsMjIuMDAwMSBMMjIuMDE2MSw3LjQwMDEgQzIzLjgwNzEsOC41ODYxIDI2LjUzNzEsOC4wOTQxIDI3Ljc5NDEsNS4xOTgxIEMyNy45MTAxLDQuOTMyMSAyNy45OTIxLDQuNjQ0MSAyOC4wMTYxLDQuMzU1MSBDMjguMjIxMSwxLjk5NDEgMjYuMzcwMSwwLjAwOTEgMjQuMDQ4MSwwLjAwMDEgQzIyLjIxODEsLTAuMDA2OSAyMC42MTcxLDEuMjI4MSAyMC4xNTkxLDMuMDAwMSBMNy45MTYxLDMuMDAwMSBDNy40MzMxLDEuMjQwMSA1Ljg0MTEsMC4wMTUxIDQuMDE2MSwwLjAwMDEgQzEuNjc0MSwwLjAwMDEgLTAuMTk2OSwyLjAxMjEgMC4wMzYxLDQuNDAyMSBDMC4wNjcxLDQuNzIzMSAwLjE2MzEsNS4wNDExIDAuMjk5MSw1LjMzNTEgQzEuNTgyMSw4LjEwOTEgNC4yNTQxLDguNTY3MSA2LjAxNjEsNy40MDAxIEwxMC42MDIxLDEyLjAwMDEgTDEyLjAxNjEsMTAuNTg2MSBMNy40MTYxLDYuMDAwMSBDNy41OTIxLDUuNjg1MSA3LjcyNjEsNS4zNDkxIDcuODE2MSw1LjAwMDEgTDIwLjE1ODEsNS4wMDAxIEMyMC4yNTgxLDUuMzU1MSAyMC40MTIxLDUuNjkyMSAyMC42MTYxLDYuMDAwMSBMNi4wMTYxLDIwLjYwMDEgQzQuMjI0MSwxOS40MTMxIDEuNDk0MSwxOS45MDcxIDAuMjM3MSwyMi44MDUxIEMwLjEyMjEsMjMuMDcwMSAwLjA0MDEsMjMuMzU3MSAwLjAxNjEsMjMuNjQ1MSBDLTAuMTg3OSwyNi4wMDYxIDEuNjYzMSwyNy45OTExIDMuOTg0MSwyOC4wMDAxIEM1LjgxNDEsMjguMDA3MSA3LjQxNTEsMjYuNzcyMSA3Ljg3MzEsMjUuMDAwMSBMMjAuMTE2MSwyNS4wMDAxIEMyMC43MjkxLDI3LjQxMzEgMjMuNDEyMSwyOC43NTUxIDI1Ljc4NzEsMjcuNjEwMSBDMjcuMTAzMSwyNi45NzUxIDI3Ljk4NzEsMjUuNjA0MSAyOC4wMTgxLDI0LjE0MzEgQzI4LjA2ODEsMjEuNzk1MSAyNi4yMTIxLDIwLjAwNjEgMjQuMDE2MSwyMC4wMDAxIiBpZD0iRmlsbC0xIj48L3BhdGg+CiAgICAgICAgPC9nPgogICAgPC9nPgo8L3N2Zz4=;" vertex="1" parent="NlnUNt_2MzWAzlFYxS39-22">
          <mxGeometry x="19" y="9" width="24" height="24" as="geometry" />
        </mxCell>
        <mxCell id="NlnUNt_2MzWAzlFYxS39-33" value="Tailscale&#xa;Subnet Router" style="shape=image;verticalLabelPosition=bottom;verticalAlign=top;imageAspect=0;aspect=fixed;image=data:image/svg+xml,PHN2ZyB4bWxuczp4bGluaz0iaHR0cDovL3d3dy53My5vcmcvMTk5OS94bGluayIgeG1sbnM9Imh0dHA6Ly93d3cudzMub3JnLzIwMDAvc3ZnIiB2ZXJzaW9uPSIxLjEiIHZpZXdCb3g9IjAgMCA0OCA0OCIgaGVpZ2h0PSI0OHB4IiB3aWR0aD0iNDhweCI+JiN4YTsgICAgPHRpdGxlPmdhdGV3YXktLXZwbjwvdGl0bGU+JiN4YTsgICAgPGcgZmlsbC1ydWxlPSJldmVub2RkIiBmaWxsPSJub25lIiBzdHJva2Utd2lkdGg9IjEiIHN0cm9rZT0ibm9uZSIgaWQ9IlYyLUljb25zIj4mI3hhOyAgICAgICAgPGcgdHJhbnNmb3JtPSJ0cmFuc2xhdGUoLTEwNTcsIC03NykiIGlkPSJJQk0tLy1DbG91ZC0vLVNlY3VyaXR5Ij4mI3hhOyAgICAgICAgICAgIDxnIHRyYW5zZm9ybT0idHJhbnNsYXRlKDEwNTcsIDc3KSIgaWQ9ImdhdGV3YXktLXZwbiI+JiN4YTsgICAgICAgICAgICAgICAgPHBvbHlnb24gcG9pbnRzPSIwIDQ4IDQ4IDQ4IDQ4IDAgMCAwIiBmaWxsPSIjRkE0RDU2IiBpZD0iRmlsbC00Ii8+JiN4YTsgICAgICAgICAgICAgICAgPHBhdGggZmlsbC1ydWxlPSJub256ZXJvIiBmaWxsPSIjRkZGRkZGIiBpZD0iU2hhcGUiIGQ9Ik0yNywyMi43MDg3MjUgTDI3LDIxIEMyNywxOS4zNDMxNDU4IDI1LjY1Njg1NDIsMTggMjQsMTggQzIyLjM0MzE0NTgsMTggMjEsMTkuMzQzMTQ1OCAyMSwyMSBMMjEsMjIuNzA4NzI1IEMyMC41Mzc0OTQ3LDIyLjk3NDQ4MjkgMjAuMjUxNjczNSwyMy40NjY1ODEyIDIwLjI1LDI0IEwyMC4yNSwyNy43NSBDMjAuMjUwOTUwNiwyOC41NzgwMzMxIDIwLjkyMTk2NjksMjkuMjQ5MDQ5NCAyMS43NSwyOS4yNSBMMjYuMjUsMjkuMjUgQzI3LjA3ODAzMzEsMjkuMjQ5MDQ5NCAyNy43NDkwNDk0LDI4LjU3ODAzMzEgMjcuNzUsMjcuNzUgTDI3Ljc1LDI0IEMyNy43NDgzMjY1LDIzLjQ2NjU4MTIgMjcuNDYyNTA1MywyMi45NzQ0ODI5IDI3LDIyLjcwODcyNSBaIE0yNCwxOS41IEMyNC44MjgwMzMxLDE5LjUwMDk1MDYgMjUuNDk5MDQ5NCwyMC4xNzE5NjY5IDI1LjUsMjEgTDI1LjUsMjIuNSBMMjIuNSwyMi41IEwyMi41LDIxIEMyMi41MDA5NTA2LDIwLjE3MTk2NjkgMjMuMTcxOTY2OSwxOS41MDA5NTA2IDI0LDE5LjUgTDI0LDE5LjUgWiBNMjYuMjUsMjcuNzUgTDIxLjc1LDI3Ljc1IEwyMS43NSwyNCBMMjYuMjUsMjQgTDI2LjI1LDI3Ljc1IFoiLz4mI3hhOyAgICAgICAgICAgICAgICA8cGF0aCBmaWxsLXJ1bGU9Im5vbnplcm8iIGZpbGw9IiNGRkZGRkYiIGlkPSJTaGFwZSIgZD0iTTM0LjgxMDU3NSwyNS4wNjA1NzUgQzM1LjA5MTkxOTQsMjQuNzc5MzI2MSAzNS4yNDk5ODUsMjQuMzk3ODEzNSAzNS4yNDk5ODUsMjQgQzM1LjI0OTk4NSwyMy42MDIxODY1IDM1LjA5MTkxOTQsMjMuMjIwNjczOSAzNC44MTA1NzUsMjIuOTM5NDI1IEwzMC40NzA0LDE4LjU5OTQ3NSBMMzIuNjQ1ODUsMTYuNDUyMzc1IEMzMy4zMDU1MTE4LDE2LjYxNTgzOTUgMzMuOTkyNzEzOSwxNi4zMTU3OTA0IDM0LjMyMTI0MTQsMTUuNzIwODU4NCBDMzQuNjQ5NzY5LDE1LjEyNTkyNjQgMzQuNTM3NjgwMSwxNC4zODQ1MDA3IDM0LjA0Nzk2OTgsMTMuOTEzMjcwMSBDMzMuNTU4MjU5NiwxMy40NDIwMzk1IDMyLjgxMzA3MjUsMTMuMzU4NTM5MyAzMi4yMzEyMTE0LDEzLjcwOTY5NzQgQzMxLjY0OTM1MDMsMTQuMDYwODU1NiAzMS4zNzU5NDQyLDE0Ljc1OTA4NTcgMzEuNTY0NjUsMTUuNDExOTc1IEwyOS40MDk2NzUsMTcuNTM4NiBMMjUuMDYwNTc1LDEzLjE4OTQyNSBDMjQuNzc5MzI2MSwxMi45MDgwODA2IDI0LjM5NzgxMzUsMTIuNzUwMDE1IDI0LDEyLjc1MDAxNSBDMjMuNjAyMTg2NSwxMi43NTAwMTUgMjMuMjIwNjczOSwxMi45MDgwODA2IDIyLjkzOTQyNSwxMy4xODk0MjUgTDE4LjU5OTQ3NSwxNy41Mjk0NSBMMTYuNDUyNiwxNS4zNTM3NzUgQzE2LjYxNTk3MTksMTQuNjkzOTk4NiAxNi4zMTU3NTAzLDE0LjAwNjc2MDYgMTUuNzIwNjcxMywxMy42NzgzMTUzIEMxNS4xMjU1OTI0LDEzLjM0OTg3IDE0LjM4NDA5MTUsMTMuNDYyMTQ0MSAxMy45MTI5MjA4LDEzLjk1MjAzNTMgQzEzLjQ0MTc1LDE0LjQ0MTkyNjUgMTMuMzU4NDM3NCwxNS4xODcyMzcyIDEzLjcwOTgwNzcsMTUuNzY5MDc0MSBDMTQuMDYxMTc4MSwxNi4zNTA5MTA5IDE0Ljc1OTU4NjMsMTYuNjI0MTQxNiAxNS40MTI1LDE2LjQzNTIgTDE3LjUzODc1LDE4LjU5MDMyNSBMMTMuMTg5NDI1LDIyLjkzOTQyNSBDMTIuOTA4MDgwNiwyMy4yMjA2NzM5IDEyLjc1MDAxNSwyMy42MDIxODY1IDEyLjc1MDAxNSwyNCBDMTIuNzUwMDE1LDI0LjM5NzgxMzUgMTIuOTA4MDgwNiwyNC43NzkzMjYxIDEzLjE4OTQyNSwyNS4wNjA1NzUgTDE3LjUzODYsMjkuNDA5Njc1IEwxNS40MTI1LDMxLjU2NDggQzE0Ljc2MTA3NzEsMzEuMzc3MjQ1NCAxNC4wNjQ4Nzk0LDMxLjY1MDQ0MTQgMTMuNzE0ODYyMiwzMi4yMzA5NzI2IEMxMy4zNjQ4NDQ5LDMyLjgxMTUwMzkgMTMuNDQ4MjE5MywzMy41NTQ3MjM5IDEzLjkxODE2NTgsMzQuMDQzMjcxNyBDMTQuMzg4MTEyMiwzNC41MzE4MTk1IDE1LjEyNzUzNzgsMzQuNjQzOTY3MyAxNS43MjEyMTIyLDM0LjMxNjczNzcgQzE2LjMxNDg4NjcsMzMuOTg5NTA4MSAxNi42MTQ4ODg4LDMzLjMwNDQzNDQgMTYuNDUyNzUsMzIuNjQ2MjI1IEwxOC41OTk2MjUsMzAuNDcwNTUgTDIyLjkzOTU3NSwzNC44MTA1NzUgQzIzLjIyMDgyMzksMzUuMDkxOTE5NCAyMy42MDIzMzY1LDM1LjI0OTk4NSAyNC4wMDAxNSwzNS4yNDk5ODUgQzI0LjM5Nzk2MzUsMzUuMjQ5OTg1IDI0Ljc3OTQ3NjEsMzUuMDkxOTE5NCAyNS4wNjA3MjUsMzQuODEwNTc1IEwyOS40MDk4MjUsMzAuNDYxNCBMMzEuNTY0OCwzMi41ODgwMjUgQzMxLjM3NzI1MjMsMzMuMjM5NTg3NSAzMS42NTA1NjkxLDMzLjkzNTkwMDYgMzIuMjMxMjU2MSwzNC4yODU5MTU2IEMzMi44MTE5NDMxLDM0LjYzNTkzMDYgMzMuNTU1MzAxMiwzNC41NTI0Mjg4IDM0LjA0Mzg2MTYsMzQuMDgyMzA0NyBDMzQuNTMyNDIxOSwzMy42MTIxODA2IDM0LjY0NDQ0MjEsMzIuODcyNTgyNCAzNC4zMTcwMTE4LDMyLjI3ODg2NzcgQzMzLjk4OTU4MTQsMzEuNjg1MTUyOSAzMy4zMDQyOTE1LDMxLjM4NTI2NjggMzIuNjQ2LDMxLjU0NzYyNSBMMzAuNDcwNTUsMjkuNDAwNTI1IEwzNC44MTA1NzUsMjUuMDYwNTc1IFogTTI0LDMzLjc1IEwxNC4yNSwyNCBMMjQsMTQuMjUgTDMzLjc1LDI0IEwyNCwzMy43NSBaIi8+JiN4YTsgICAgICAgICAgICAgICAgPHJlY3QgaGVpZ2h0PSIyNCIgd2lkdGg9IjI0IiB5PSIxMiIgeD0iMTIiIGlkPSJfVHJhbnNwYXJlbnRfUmVjdGFuZ2xlXyIvPiYjeGE7ICAgICAgICAgICAgPC9nPiYjeGE7ICAgICAgICA8L2c+JiN4YTsgICAgPC9nPiYjeGE7PC9zdmc+;fontSize=14;fontFamily=IBM Plex Sans;spacingTop=-7;labelPosition=center;align=center;" vertex="1" parent="NlnUNt_2MzWAzlFYxS39-22">
          <mxGeometry x="163" y="52" width="48" height="48" as="geometry" />
        </mxCell>
        <mxCell id="NlnUNt_2MzWAzlFYxS39-26" value="" style="rounded=0;whiteSpace=wrap;html=1;fontFamily=IBM Plex Sans;fontSource=fonts%2FIBMPlexSans-Regular.woff;fontSize=14;spacingBottom=-28;spacingTop=0;labelPosition=-100;verticalLabelPosition=top;align=center;verticalAlign=bottom;spacingLeft=9;spacing=0;expand=0;recursiveResize=0;spacingRight=0;container=1;collapsible=0;strokeColor=#1192E8;fillColor=none;" vertex="1" parent="NlnUNt_2MzWAzlFYxS39-14">
          <mxGeometry x="52.329999999999984" y="242" width="374" height="152" as="geometry">
            <mxRectangle width="670" as="alternateBounds" />
          </mxGeometry>
        </mxCell>
        <mxCell id="NlnUNt_2MzWAzlFYxS39-27" value="" style="rounded=0;whiteSpace=wrap;html=1;strokeColor=none;fillColor=#1192E8;" vertex="1" parent="NlnUNt_2MzWAzlFYxS39-26">
          <mxGeometry width="4" height="48" as="geometry" />
        </mxCell>
        <mxCell id="NlnUNt_2MzWAzlFYxS39-28" value="Services Subnet" style="text;html=1;strokeColor=none;fillColor=none;align=left;verticalAlign=middle;whiteSpace=wrap;rounded=0;fontFamily=IBM Plex Sans;fontSource=fonts%2FIBMPlexSans-Regular.woff;fontSize=14;" vertex="1" parent="NlnUNt_2MzWAzlFYxS39-26">
          <mxGeometry x="51" y="8" width="163" height="20" as="geometry" />
        </mxCell>
        <mxCell id="NlnUNt_2MzWAzlFYxS39-29" value="" style="shape=image;image=data:image/svg+xml,PD94bWwgdmVyc2lvbj0iMS4wIiBlbmNvZGluZz0iVVRGLTgiPz4KPHN2ZyB3aWR0aD0iMjlweCIgaGVpZ2h0PSIyOXB4IiB2aWV3Qm94PSIwIDAgMjkgMjkiIHZlcnNpb249IjEuMSIgeG1sbnM9Imh0dHA6Ly93d3cudzMub3JnLzIwMDAvc3ZnIiB4bWxuczp4bGluaz0iaHR0cDovL3d3dy53My5vcmcvMTk5OS94bGluayI+CiAgICA8IS0tIEdlbmVyYXRvcjogU2tldGNoIDUzICg3MjUyMCkgLSBodHRwczovL3NrZXRjaGFwcC5jb20gLS0+CiAgICA8dGl0bGU+SUJNIFN1Ym5ldCA6IEFDTCBCbGFjazwvdGl0bGU+CiAgICA8ZGVzYz5DcmVhdGVkIHdpdGggU2tldGNoLjwvZGVzYz4KICAgIDxnIGlkPSJQYWdlLTEiIHN0cm9rZT0ibm9uZSIgc3Ryb2tlLXdpZHRoPSIxIiBmaWxsPSJub25lIiBmaWxsLXJ1bGU9ImV2ZW5vZGQiPgogICAgICAgIDxnIGlkPSJJQk0tU3VibmV0LTotQUNMLUJsYWNrIiB0cmFuc2Zvcm09InRyYW5zbGF0ZSgwLjc1MDAwMCwgMC4wNzQ5NTkpIiBmaWxsPSIjMDAwMDAwIj4KICAgICAgICAgICAgPHBhdGggZD0iTTI0LjAxNjEsMjYuMjIyMSBDMjIuOTEyMSwyNi4yMjIxIDIyLjAxNjEsMjUuMzI2MSAyMi4wMTYxLDI0LjIyMjEgQzIyLjAxNjEsMjMuMTE4MSAyMi45MTIxLDIyLjIyMjEgMjQuMDE2MSwyMi4yMjIxIEMyNS4xMjAxLDIyLjIyMjEgMjYuMDE2MSwyMy4xMTgxIDI2LjAxNjEsMjQuMjIyMSBDMjYuMDEzMSwyNS4zMjUxIDI1LjExOTEsMjYuMjE5MSAyNC4wMTYxLDI2LjIyMjEgTTQuMDE2MSwyNi4yMjIxIEMyLjkxMjEsMjYuMjIyMSAyLjAxNjEsMjUuMzI2MSAyLjAxNjEsMjQuMjIyMSBDMi4wMTYxLDIzLjExODEgMi45MTIxLDIyLjIyMjEgNC4wMTYxLDIyLjIyMjEgQzUuMTIwMSwyMi4yMjIxIDYuMDE2MSwyMy4xMTgxIDYuMDE2MSwyNC4yMjIxIEM2LjAxMzEsMjUuMzI1MSA1LjExOTEsMjYuMjE5MSA0LjAxNjEsMjYuMjIyMSBNNC4wMTYxLDYuMjIyMSBDMi45MTIxLDYuMjIyMSAyLjAxNjEsNS4zMjYxIDIuMDE2MSw0LjIyMjEgQzIuMDE2MSwzLjExODEgMi45MTIxLDIuMjIyMSA0LjAxNjEsMi4yMjIxIEM1LjEyMDEsMi4yMjIxIDYuMDE2MSwzLjExODEgNi4wMTYxLDQuMjIyMSBDNi4wMTMxLDUuMzI1MSA1LjExOTEsNi4yMTkxIDQuMDE2MSw2LjIyMjEgTTI0LjAxNjEsMi4yMjIxIEMyNS4xMjAxLDIuMjIyMSAyNi4wMTYxLDMuMTE4MSAyNi4wMTYxLDQuMjIyMSBDMjYuMDE2MSw1LjMyNjEgMjUuMTIwMSw2LjIyMjEgMjQuMDE2MSw2LjIyMjEgQzIyLjkxMjEsNi4yMjIxIDIyLjAxNjEsNS4zMjYxIDIyLjAxNjEsNC4yMjIxIEMyMi4wMTkxLDMuMTE4MSAyMi45MTMxLDIuMjI1MSAyNC4wMTYxLDIuMjIyMSBNMjQuMDE2MSwyMC4wMDAxIEMyMy4zMDUxLDE5Ljk5ODEgMjIuNjA5MSwyMC4yMDcxIDIyLjAxNjEsMjAuNjAwMSBMMTcuNDMwMSwxNi4wMDAxIEwxNi4wMTYxLDE3LjQxNDEgTDIwLjYxNjEsMjIuMDAwMSBDMjAuNDQwMSwyMi4zMTQxIDIwLjMwNjEsMjIuNjUxMSAyMC4yMTYxLDIzLjAwMDEgTDcuODc0MSwyMy4wMDAxIEM3Ljc3NDEsMjIuNjQ1MSA3LjYyMDEsMjIuMzA3MSA3LjQxNjEsMjIuMDAwMSBMMjIuMDE2MSw3LjQwMDEgQzIzLjgwNzEsOC41ODYxIDI2LjUzNzEsOC4wOTQxIDI3Ljc5NDEsNS4xOTgxIEMyNy45MTAxLDQuOTMyMSAyNy45OTIxLDQuNjQ0MSAyOC4wMTYxLDQuMzU1MSBDMjguMjIxMSwxLjk5NDEgMjYuMzcwMSwwLjAwOTEgMjQuMDQ4MSwwLjAwMDEgQzIyLjIxODEsLTAuMDA2OSAyMC42MTcxLDEuMjI4MSAyMC4xNTkxLDMuMDAwMSBMNy45MTYxLDMuMDAwMSBDNy40MzMxLDEuMjQwMSA1Ljg0MTEsMC4wMTUxIDQuMDE2MSwwLjAwMDEgQzEuNjc0MSwwLjAwMDEgLTAuMTk2OSwyLjAxMjEgMC4wMzYxLDQuNDAyMSBDMC4wNjcxLDQuNzIzMSAwLjE2MzEsNS4wNDExIDAuMjk5MSw1LjMzNTEgQzEuNTgyMSw4LjEwOTEgNC4yNTQxLDguNTY3MSA2LjAxNjEsNy40MDAxIEwxMC42MDIxLDEyLjAwMDEgTDEyLjAxNjEsMTAuNTg2MSBMNy40MTYxLDYuMDAwMSBDNy41OTIxLDUuNjg1MSA3LjcyNjEsNS4zNDkxIDcuODE2MSw1LjAwMDEgTDIwLjE1ODEsNS4wMDAxIEMyMC4yNTgxLDUuMzU1MSAyMC40MTIxLDUuNjkyMSAyMC42MTYxLDYuMDAwMSBMNi4wMTYxLDIwLjYwMDEgQzQuMjI0MSwxOS40MTMxIDEuNDk0MSwxOS45MDcxIDAuMjM3MSwyMi44MDUxIEMwLjEyMjEsMjMuMDcwMSAwLjA0MDEsMjMuMzU3MSAwLjAxNjEsMjMuNjQ1MSBDLTAuMTg3OSwyNi4wMDYxIDEuNjYzMSwyNy45OTExIDMuOTg0MSwyOC4wMDAxIEM1LjgxNDEsMjguMDA3MSA3LjQxNTEsMjYuNzcyMSA3Ljg3MzEsMjUuMDAwMSBMMjAuMTE2MSwyNS4wMDAxIEMyMC43MjkxLDI3LjQxMzEgMjMuNDEyMSwyOC43NTUxIDI1Ljc4NzEsMjcuNjEwMSBDMjcuMTAzMSwyNi45NzUxIDI3Ljk4NzEsMjUuNjA0MSAyOC4wMTgxLDI0LjE0MzEgQzI4LjA2ODEsMjEuNzk1MSAyNi4yMTIxLDIwLjAwNjEgMjQuMDE2MSwyMC4wMDAxIiBpZD0iRmlsbC0xIj48L3BhdGg+CiAgICAgICAgPC9nPgogICAgPC9nPgo8L3N2Zz4=;" vertex="1" parent="NlnUNt_2MzWAzlFYxS39-26">
          <mxGeometry x="19" y="9" width="24" height="24" as="geometry" />
        </mxCell>
        <mxCell id="NlnUNt_2MzWAzlFYxS39-30" value="Instance 1" style="shape=image;aspect=fixed;image=data:image/svg+xml,PD94bWwgdmVyc2lvbj0iMS4wIiBlbmNvZGluZz0iVVRGLTgiPz4KPHN2ZyB3aWR0aD0iNDhweCIgaGVpZ2h0PSI0OXB4IiB2aWV3Qm94PSIwIDAgNDggNDkiIHZlcnNpb249IjEuMSIgeG1sbnM9Imh0dHA6Ly93d3cudzMub3JnLzIwMDAvc3ZnIiB4bWxuczp4bGluaz0iaHR0cDovL3d3dy53My5vcmcvMTk5OS94bGluayI+CiAgICA8dGl0bGU+VmlydHVhbCBTZXJ2ZXIgQ2xhc3NpYzwvdGl0bGU+CiAgICA8ZyBpZD0iVjItSWNvbnMiIHN0cm9rZT0ibm9uZSIgc3Ryb2tlLXdpZHRoPSIxIiBmaWxsPSJub25lIiBmaWxsLXJ1bGU9ImV2ZW5vZGQiPgogICAgICAgIDxnIGlkPSJJQk0tLy1DbG91ZC0vLUNvbXB1dGUiIHRyYW5zZm9ybT0idHJhbnNsYXRlKC0xMjUzLCAtNDgpIj4KICAgICAgICAgICAgPGcgaWQ9IlZpcnR1YWwtU2VydmVyLUNsYXNzaWMiIHRyYW5zZm9ybT0idHJhbnNsYXRlKDEyNTMsIDQ4LjM0MjEpIj4KICAgICAgICAgICAgICAgIDxwb2x5Z29uIGlkPSJSZWN0YW5nbGUiIGZpbGw9IiMxOTgwMzgiIHBvaW50cz0iMCA0OCA0OCA0OCA0OCAwIDAgMCI+PC9wb2x5Z29uPgogICAgICAgICAgICAgICAgPGcgaWQ9ImlibS1jbG91ZC0tdmlydHVhbC1zZXJ2ZXItdnBjIiB0cmFuc2Zvcm09InRyYW5zbGF0ZSgxMS45OTU4LCAxMS42NTc5KSI+CiAgICAgICAgICAgICAgICAgICAgPGNpcmNsZSBpZD0iT3ZhbCIgZmlsbD0iI0ZGRkZGRiIgZmlsbC1ydWxlPSJub256ZXJvIiBjeD0iNiIgY3k9IjE5LjUiIHI9IjEiPjwvY2lyY2xlPgogICAgICAgICAgICAgICAgICAgIDxwYXRoIGQ9Ik0zLjc1LDIyLjUgTDIwLjI1LDIyLjUgQzIxLjA3NSwyMi41IDIxLjc1LDIxLjgyNSAyMS43NSwyMSBMMjEuNzUsMTggQzIxLjc1LDE3LjE3NSAyMS4wNzUsMTYuNSAyMC4yNSwxNi41IEwzLjc1LDE2LjUgQzIuOTI1LDE2LjUgMi4yNSwxNy4xNzUgMi4yNSwxOCBMMi4yNSwyMSBDMi4yNSwyMS44MjUgMi45MjUsMjIuNSAzLjc1LDIyLjUgWiBNMy43NSwxOCBMMjAuMjUsMTggTDIwLjI1LDIxIEwzLjc1LDIxIEwzLjc1LDE4IFoiIGlkPSJTaGFwZSIgZmlsbD0iI0ZGRkZGRiIgZmlsbC1ydWxlPSJub256ZXJvIj48L3BhdGg+CiAgICAgICAgICAgICAgICAgICAgPHBhdGggZD0iTTE3LjI1LDE1IEw2Ljc1LDE1IEM0LjI2NzUsMTUgMi4yNSwxMi45ODI1IDIuMjUsMTAuNSBDMi4yNSw4LjIxMjUgMy45Njc1LDYuMzE1IDYuMTg3NSw2LjAzNzUgQzYuODQ3NSwzLjQxMjUgOS4yNDc1LDEuNSAxMiwxLjUgQzE0Ljc1MjUsMS41IDE3LjE1MjUsMy40MTI1IDE3LjgxMjUsNi4wMzc1IEMyMC4wMzI1LDYuMzE1IDIxLjc1LDguMjEyNSAyMS43NSwxMC41IEMyMS43NSwxMi45ODI1IDE5LjczMjUsMTUgMTcuMjUsMTUgWiBNNi43MTI1LDcuNSBDNS4wNzc1LDcuNTIyNSAzLjc1LDguODU3NSAzLjc1LDEwLjUgQzMuNzUsMTIuMTU3NSA1LjA5MjUsMTMuNSA2Ljc1LDEzLjUgTDE3LjI1LDEzLjUgQzE4LjkwNzUsMTMuNSAyMC4yNSwxMi4xNTc1IDIwLjI1LDEwLjUgQzIwLjI1LDguODU3NSAxOC45Myw3LjUyMjUgMTcuMjk1LDcuNSBMMTcuMjA1LDcuNTA3NSBMMTYuNTQ1LDcuNTIyNSBMMTYuNDU1LDYuODYyNSBDMTYuMTMyNSw0LjY1NzUgMTQuMjIsMyAxMiwzIEM5Ljc4LDMgNy44Njc1LDQuNjU3NSA3LjU1MjUsNi44NjI1IEw3LjQ2MjUsNy41MjI1IEw2LjcxMjUsNy41IFoiIGlkPSJTaGFwZSIgZmlsbD0iI0ZGRkZGRiIgZmlsbC1ydWxlPSJub256ZXJvIj48L3BhdGg+CiAgICAgICAgICAgICAgICAgICAgPHJlY3QgaWQ9IlJlY3RhbmdsZSIgeD0iMCIgeT0iMCIgd2lkdGg9IjI0IiBoZWlnaHQ9IjI0Ij48L3JlY3Q+CiAgICAgICAgICAgICAgICA8L2c+CiAgICAgICAgICAgIDwvZz4KICAgICAgICA8L2c+CiAgICA8L2c+Cjwvc3ZnPg==;fontFamily=IBM Plex Sans;fontSize=14;labelPosition=center;verticalLabelPosition=bottom;align=center;verticalAlign=top;spacingTop=-6;" vertex="1" parent="NlnUNt_2MzWAzlFYxS39-26">
          <mxGeometry x="27.669999999999945" y="48" width="48" height="48" as="geometry" />
        </mxCell>
        <mxCell id="NlnUNt_2MzWAzlFYxS39-31" value="Instance 2" style="shape=image;aspect=fixed;image=data:image/svg+xml,PD94bWwgdmVyc2lvbj0iMS4wIiBlbmNvZGluZz0iVVRGLTgiPz4KPHN2ZyB3aWR0aD0iNDhweCIgaGVpZ2h0PSI0OXB4IiB2aWV3Qm94PSIwIDAgNDggNDkiIHZlcnNpb249IjEuMSIgeG1sbnM9Imh0dHA6Ly93d3cudzMub3JnLzIwMDAvc3ZnIiB4bWxuczp4bGluaz0iaHR0cDovL3d3dy53My5vcmcvMTk5OS94bGluayI+CiAgICA8dGl0bGU+VmlydHVhbCBTZXJ2ZXIgQ2xhc3NpYzwvdGl0bGU+CiAgICA8ZyBpZD0iVjItSWNvbnMiIHN0cm9rZT0ibm9uZSIgc3Ryb2tlLXdpZHRoPSIxIiBmaWxsPSJub25lIiBmaWxsLXJ1bGU9ImV2ZW5vZGQiPgogICAgICAgIDxnIGlkPSJJQk0tLy1DbG91ZC0vLUNvbXB1dGUiIHRyYW5zZm9ybT0idHJhbnNsYXRlKC0xMjUzLCAtNDgpIj4KICAgICAgICAgICAgPGcgaWQ9IlZpcnR1YWwtU2VydmVyLUNsYXNzaWMiIHRyYW5zZm9ybT0idHJhbnNsYXRlKDEyNTMsIDQ4LjM0MjEpIj4KICAgICAgICAgICAgICAgIDxwb2x5Z29uIGlkPSJSZWN0YW5nbGUiIGZpbGw9IiMxOTgwMzgiIHBvaW50cz0iMCA0OCA0OCA0OCA0OCAwIDAgMCI+PC9wb2x5Z29uPgogICAgICAgICAgICAgICAgPGcgaWQ9ImlibS1jbG91ZC0tdmlydHVhbC1zZXJ2ZXItdnBjIiB0cmFuc2Zvcm09InRyYW5zbGF0ZSgxMS45OTU4LCAxMS42NTc5KSI+CiAgICAgICAgICAgICAgICAgICAgPGNpcmNsZSBpZD0iT3ZhbCIgZmlsbD0iI0ZGRkZGRiIgZmlsbC1ydWxlPSJub256ZXJvIiBjeD0iNiIgY3k9IjE5LjUiIHI9IjEiPjwvY2lyY2xlPgogICAgICAgICAgICAgICAgICAgIDxwYXRoIGQ9Ik0zLjc1LDIyLjUgTDIwLjI1LDIyLjUgQzIxLjA3NSwyMi41IDIxLjc1LDIxLjgyNSAyMS43NSwyMSBMMjEuNzUsMTggQzIxLjc1LDE3LjE3NSAyMS4wNzUsMTYuNSAyMC4yNSwxNi41IEwzLjc1LDE2LjUgQzIuOTI1LDE2LjUgMi4yNSwxNy4xNzUgMi4yNSwxOCBMMi4yNSwyMSBDMi4yNSwyMS44MjUgMi45MjUsMjIuNSAzLjc1LDIyLjUgWiBNMy43NSwxOCBMMjAuMjUsMTggTDIwLjI1LDIxIEwzLjc1LDIxIEwzLjc1LDE4IFoiIGlkPSJTaGFwZSIgZmlsbD0iI0ZGRkZGRiIgZmlsbC1ydWxlPSJub256ZXJvIj48L3BhdGg+CiAgICAgICAgICAgICAgICAgICAgPHBhdGggZD0iTTE3LjI1LDE1IEw2Ljc1LDE1IEM0LjI2NzUsMTUgMi4yNSwxMi45ODI1IDIuMjUsMTAuNSBDMi4yNSw4LjIxMjUgMy45Njc1LDYuMzE1IDYuMTg3NSw2LjAzNzUgQzYuODQ3NSwzLjQxMjUgOS4yNDc1LDEuNSAxMiwxLjUgQzE0Ljc1MjUsMS41IDE3LjE1MjUsMy40MTI1IDE3LjgxMjUsNi4wMzc1IEMyMC4wMzI1LDYuMzE1IDIxLjc1LDguMjEyNSAyMS43NSwxMC41IEMyMS43NSwxMi45ODI1IDE5LjczMjUsMTUgMTcuMjUsMTUgWiBNNi43MTI1LDcuNSBDNS4wNzc1LDcuNTIyNSAzLjc1LDguODU3NSAzLjc1LDEwLjUgQzMuNzUsMTIuMTU3NSA1LjA5MjUsMTMuNSA2Ljc1LDEzLjUgTDE3LjI1LDEzLjUgQzE4LjkwNzUsMTMuNSAyMC4yNSwxMi4xNTc1IDIwLjI1LDEwLjUgQzIwLjI1LDguODU3NSAxOC45Myw3LjUyMjUgMTcuMjk1LDcuNSBMMTcuMjA1LDcuNTA3NSBMMTYuNTQ1LDcuNTIyNSBMMTYuNDU1LDYuODYyNSBDMTYuMTMyNSw0LjY1NzUgMTQuMjIsMyAxMiwzIEM5Ljc4LDMgNy44Njc1LDQuNjU3NSA3LjU1MjUsNi44NjI1IEw3LjQ2MjUsNy41MjI1IEw2LjcxMjUsNy41IFoiIGlkPSJTaGFwZSIgZmlsbD0iI0ZGRkZGRiIgZmlsbC1ydWxlPSJub256ZXJvIj48L3BhdGg+CiAgICAgICAgICAgICAgICAgICAgPHJlY3QgaWQ9IlJlY3RhbmdsZSIgeD0iMCIgeT0iMCIgd2lkdGg9IjI0IiBoZWlnaHQ9IjI0Ij48L3JlY3Q+CiAgICAgICAgICAgICAgICA8L2c+CiAgICAgICAgICAgIDwvZz4KICAgICAgICA8L2c+CiAgICA8L2c+Cjwvc3ZnPg==;fontFamily=IBM Plex Sans;fontSize=14;labelPosition=center;verticalLabelPosition=bottom;align=center;verticalAlign=top;spacingTop=-6;" vertex="1" parent="NlnUNt_2MzWAzlFYxS39-26">
          <mxGeometry x="117.67000000000002" y="48" width="48" height="48" as="geometry" />
        </mxCell>
        <mxCell id="NlnUNt_2MzWAzlFYxS39-32" value="Instance 3" style="shape=image;aspect=fixed;image=data:image/svg+xml,PD94bWwgdmVyc2lvbj0iMS4wIiBlbmNvZGluZz0iVVRGLTgiPz4KPHN2ZyB3aWR0aD0iNDhweCIgaGVpZ2h0PSI0OXB4IiB2aWV3Qm94PSIwIDAgNDggNDkiIHZlcnNpb249IjEuMSIgeG1sbnM9Imh0dHA6Ly93d3cudzMub3JnLzIwMDAvc3ZnIiB4bWxuczp4bGluaz0iaHR0cDovL3d3dy53My5vcmcvMTk5OS94bGluayI+CiAgICA8dGl0bGU+VmlydHVhbCBTZXJ2ZXIgQ2xhc3NpYzwvdGl0bGU+CiAgICA8ZyBpZD0iVjItSWNvbnMiIHN0cm9rZT0ibm9uZSIgc3Ryb2tlLXdpZHRoPSIxIiBmaWxsPSJub25lIiBmaWxsLXJ1bGU9ImV2ZW5vZGQiPgogICAgICAgIDxnIGlkPSJJQk0tLy1DbG91ZC0vLUNvbXB1dGUiIHRyYW5zZm9ybT0idHJhbnNsYXRlKC0xMjUzLCAtNDgpIj4KICAgICAgICAgICAgPGcgaWQ9IlZpcnR1YWwtU2VydmVyLUNsYXNzaWMiIHRyYW5zZm9ybT0idHJhbnNsYXRlKDEyNTMsIDQ4LjM0MjEpIj4KICAgICAgICAgICAgICAgIDxwb2x5Z29uIGlkPSJSZWN0YW5nbGUiIGZpbGw9IiMxOTgwMzgiIHBvaW50cz0iMCA0OCA0OCA0OCA0OCAwIDAgMCI+PC9wb2x5Z29uPgogICAgICAgICAgICAgICAgPGcgaWQ9ImlibS1jbG91ZC0tdmlydHVhbC1zZXJ2ZXItdnBjIiB0cmFuc2Zvcm09InRyYW5zbGF0ZSgxMS45OTU4LCAxMS42NTc5KSI+CiAgICAgICAgICAgICAgICAgICAgPGNpcmNsZSBpZD0iT3ZhbCIgZmlsbD0iI0ZGRkZGRiIgZmlsbC1ydWxlPSJub256ZXJvIiBjeD0iNiIgY3k9IjE5LjUiIHI9IjEiPjwvY2lyY2xlPgogICAgICAgICAgICAgICAgICAgIDxwYXRoIGQ9Ik0zLjc1LDIyLjUgTDIwLjI1LDIyLjUgQzIxLjA3NSwyMi41IDIxLjc1LDIxLjgyNSAyMS43NSwyMSBMMjEuNzUsMTggQzIxLjc1LDE3LjE3NSAyMS4wNzUsMTYuNSAyMC4yNSwxNi41IEwzLjc1LDE2LjUgQzIuOTI1LDE2LjUgMi4yNSwxNy4xNzUgMi4yNSwxOCBMMi4yNSwyMSBDMi4yNSwyMS44MjUgMi45MjUsMjIuNSAzLjc1LDIyLjUgWiBNMy43NSwxOCBMMjAuMjUsMTggTDIwLjI1LDIxIEwzLjc1LDIxIEwzLjc1LDE4IFoiIGlkPSJTaGFwZSIgZmlsbD0iI0ZGRkZGRiIgZmlsbC1ydWxlPSJub256ZXJvIj48L3BhdGg+CiAgICAgICAgICAgICAgICAgICAgPHBhdGggZD0iTTE3LjI1LDE1IEw2Ljc1LDE1IEM0LjI2NzUsMTUgMi4yNSwxMi45ODI1IDIuMjUsMTAuNSBDMi4yNSw4LjIxMjUgMy45Njc1LDYuMzE1IDYuMTg3NSw2LjAzNzUgQzYuODQ3NSwzLjQxMjUgOS4yNDc1LDEuNSAxMiwxLjUgQzE0Ljc1MjUsMS41IDE3LjE1MjUsMy40MTI1IDE3LjgxMjUsNi4wMzc1IEMyMC4wMzI1LDYuMzE1IDIxLjc1LDguMjEyNSAyMS43NSwxMC41IEMyMS43NSwxMi45ODI1IDE5LjczMjUsMTUgMTcuMjUsMTUgWiBNNi43MTI1LDcuNSBDNS4wNzc1LDcuNTIyNSAzLjc1LDguODU3NSAzLjc1LDEwLjUgQzMuNzUsMTIuMTU3NSA1LjA5MjUsMTMuNSA2Ljc1LDEzLjUgTDE3LjI1LDEzLjUgQzE4LjkwNzUsMTMuNSAyMC4yNSwxMi4xNTc1IDIwLjI1LDEwLjUgQzIwLjI1LDguODU3NSAxOC45Myw3LjUyMjUgMTcuMjk1LDcuNSBMMTcuMjA1LDcuNTA3NSBMMTYuNTQ1LDcuNTIyNSBMMTYuNDU1LDYuODYyNSBDMTYuMTMyNSw0LjY1NzUgMTQuMjIsMyAxMiwzIEM5Ljc4LDMgNy44Njc1LDQuNjU3NSA3LjU1MjUsNi44NjI1IEw3LjQ2MjUsNy41MjI1IEw2LjcxMjUsNy41IFoiIGlkPSJTaGFwZSIgZmlsbD0iI0ZGRkZGRiIgZmlsbC1ydWxlPSJub256ZXJvIj48L3BhdGg+CiAgICAgICAgICAgICAgICAgICAgPHJlY3QgaWQ9IlJlY3RhbmdsZSIgeD0iMCIgeT0iMCIgd2lkdGg9IjI0IiBoZWlnaHQ9IjI0Ij48L3JlY3Q+CiAgICAgICAgICAgICAgICA8L2c+CiAgICAgICAgICAgIDwvZz4KICAgICAgICA8L2c+CiAgICA8L2c+Cjwvc3ZnPg==;fontFamily=IBM Plex Sans;fontSize=14;labelPosition=center;verticalLabelPosition=bottom;align=center;verticalAlign=top;spacingTop=-6;" vertex="1" parent="NlnUNt_2MzWAzlFYxS39-26">
          <mxGeometry x="207.67000000000002" y="48" width="48" height="48" as="geometry" />
        </mxCell>
        <mxCell id="NlnUNt_2MzWAzlFYxS39-34" value="Private&#xa;NLB" style="shape=image;verticalLabelPosition=bottom;verticalAlign=top;imageAspect=0;aspect=fixed;image=data:image/svg+xml,PHN2ZyB4bWxuczp4bGluaz0iaHR0cDovL3d3dy53My5vcmcvMTk5OS94bGluayIgeG1sbnM9Imh0dHA6Ly93d3cudzMub3JnLzIwMDAvc3ZnIiB2ZXJzaW9uPSIxLjEiIHZpZXdCb3g9IjAgMCA0OCA0OCIgaGVpZ2h0PSI0OHB4IiB3aWR0aD0iNDhweCI+JiN4YTsgICAgPHRpdGxlPmxvYWQtYmFsYW5jZXItLW5ldHdvcms8L3RpdGxlPiYjeGE7ICAgIDxnIGZpbGwtcnVsZT0iZXZlbm9kZCIgZmlsbD0ibm9uZSIgc3Ryb2tlLXdpZHRoPSIxIiBzdHJva2U9Im5vbmUiIGlkPSJWMi1JY29ucyI+JiN4YTsgICAgICAgIDxnIHRyYW5zZm9ybT0idHJhbnNsYXRlKC01MTEsIC04NikiIGlkPSJJQk0vQ2xvdWQvTmV0d29yayI+JiN4YTsgICAgICAgICAgICA8ZyB0cmFuc2Zvcm09InRyYW5zbGF0ZSg1MTEsIDg2KSIgaWQ9ImxvYWQtYmFsYW5jZXItLW5ldHdvcmsiPiYjeGE7ICAgICAgICAgICAgICAgIDxyZWN0IGhlaWdodD0iNDgiIHdpZHRoPSI0OCIgeT0iMCIgeD0iMCIgZmlsbD0iIzExOTJFOCIgaWQ9IlJlY3RhbmdsZS1Db3B5LTE4Ii8+JiN4YTsgICAgICAgICAgICAgICAgPGcgdHJhbnNmb3JtPSJ0cmFuc2xhdGUoMTIsIDEyKSI+JiN4YTsgICAgICAgICAgICAgICAgICAgIDxwYXRoIGZpbGwtcnVsZT0ibm9uemVybyIgZmlsbD0iI0ZGRkZGRiIgaWQ9IlBhdGgiIGQ9Ik0xOC43NSwxMiBMMTIuNzUsMTIgTDEyLjc1LDkgTDExLjI1LDkgTDExLjI1LDEyIEw1LjI1LDEyIEM0LjQyMTk2Njk1LDEyLjAwMDk1MDYgMy43NTA5NTA2LDEyLjY3MTk2NjkgMy43NSwxMy41IEwzLjc1LDE2LjUgTDUuMjUsMTYuNSBMNS4yNSwxMy41IEwxMS4yNSwxMy41IEwxMS4yNSwxNi41IEwxMi43NSwxNi41IEwxMi43NSwxMy41IEwxOC43NSwxMy41IEwxOC43NSwxNi41IEwyMC4yNSwxNi41IEwyMC4yNSwxMy41IEMyMC4yNDkwNDk0LDEyLjY3MTk2NjkgMTkuNTc4MDMzMSwxMi4wMDA5NTA2IDE4Ljc1LDEyIFoiLz4mI3hhOyAgICAgICAgICAgICAgICAgICAgPHBhdGggZmlsbC1ydWxlPSJub256ZXJvIiBmaWxsPSIjRkZGRkZGIiBpZD0iU2hhcGUiIGQ9Ik0xNSw3LjUgTDE1LDEuNSBMOSwxLjUgTDksNy41IEwxNSw3LjUgWiBNMTAuNSw2IEwxMC41LDMgTDEzLjUsMyBMMTMuNSw2IEwxMC41LDYgWiIvPiYjeGE7ICAgICAgICAgICAgICAgICAgICA8cGF0aCBmaWxsLXJ1bGU9Im5vbnplcm8iIGZpbGw9IiNGRkZGRkYiIGlkPSJTaGFwZSIgZD0iTTE5LjUsMTggQzE4LjU0OTYyMTEsMTguMDAyODcyOCAxNy43MDM5MTUsMTguNjAzNTgwMyAxNy4zODgyMjUsMTkuNSBMMTQuMTExNzc1LDE5LjUgQzEzLjc5ODUyNDUsMTguNjAxNzM1NiAxMi45NTEzMTc0LDE3Ljk5OTkzNjQgMTIsMTcuOTk5OTM2NCBDMTEuMDQ4NjgyNiwxNy45OTk5MzY0IDEwLjIwMTQ3NTUsMTguNjAxNzM1NiA5Ljg4ODIyNSwxOS41IEw2LjYxMTc3NSwxOS41IEM2LjI0NjQ5Nzc3LDE4LjQ2Njg0IDUuMTkwMDI1MzMsMTcuODQ3MDk1OSA0LjEwOTk3NTIsMTguMDMyNDAzMiBDMy4wMjk5MjUwOCwxOC4yMTc3MTA1IDIuMjQwNDU0NjYsMTkuMTU0MTY4MyAyLjI0MDQ1NDY2LDIwLjI1IEMyLjI0MDQ1NDY2LDIxLjM0NTgzMTcgMy4wMjk5MjUwOCwyMi4yODIyODk1IDQuMTA5OTc1MiwyMi40Njc1OTY4IEM1LjE5MDAyNTMzLDIyLjY1MjkwNDEgNi4yNDY0OTc3NywyMi4wMzMxNiA2LjYxMTc3NSwyMSBMOS44ODgyMjUsMjEgQzEwLjIwMTQ3NTUsMjEuODk4MjY0NCAxMS4wNDg2ODI2LDIyLjUwMDA2MzYgMTIsMjIuNTAwMDYzNiBDMTIuOTUxMzE3NCwyMi41MDAwNjM2IDEzLjc5ODUyNDUsMjEuODk4MjY0NCAxNC4xMTE3NzUsMjEgTDE3LjM4ODIyNSwyMSBDMTcuNzcxNTg2LDIyLjA3NTcyNDUgMTguOTAxMTI0NSwyMi42OTI1MzM1IDIwLjAxMzM1NDMsMjIuNDMzNTA4NyBDMjEuMTI1NTg0MSwyMi4xNzQ0ODQgMjEuODY2Mzg2OCwyMS4xMjIwOTUzIDIxLjczNTAzMzQsMTkuOTg3NjgxMyBDMjEuNjAzNjgsMTguODUzMjY3MiAyMC42NDE5OTE3LDE3Ljk5ODAwOTMgMTkuNSwxOCBMMTkuNSwxOCBaIE00LjUsMjEgQzQuMDg1Nzg2NDQsMjEgMy43NSwyMC42NjQyMTM2IDMuNzUsMjAuMjUgQzMuNzUsMTkuODM1Nzg2NCA0LjA4NTc4NjQ0LDE5LjUgNC41LDE5LjUgQzQuOTE0MjEzNTYsMTkuNSA1LjI1LDE5LjgzNTc4NjQgNS4yNSwyMC4yNSBDNS4yNDk2Mjc4NSwyMC42NjQwNTkzIDQuOTE0MDU5MzEsMjAuOTk5NjI3OCA0LjUsMjEgTDQuNSwyMSBaIE0xMiwyMSBDMTEuNTg1Nzg2NCwyMSAxMS4yNSwyMC42NjQyMTM2IDExLjI1LDIwLjI1IEMxMS4yNSwxOS44MzU3ODY0IDExLjU4NTc4NjQsMTkuNSAxMiwxOS41IEMxMi40MTQyMTM2LDE5LjUgMTIuNzUsMTkuODM1Nzg2NCAxMi43NSwyMC4yNSBDMTIuNzQ5NjI3OCwyMC42NjQwNTkzIDEyLjQxNDA1OTMsMjAuOTk5NjI3OCAxMiwyMSBMMTIsMjEgWiBNMTkuNSwyMSBDMTkuMDg1Nzg2NCwyMSAxOC43NSwyMC42NjQyMTM2IDE4Ljc1LDIwLjI1IEMxOC43NSwxOS44MzU3ODY0IDE5LjA4NTc4NjQsMTkuNSAxOS41LDE5LjUgQzE5LjkxNDIxMzYsMTkuNSAyMC4yNSwxOS44MzU3ODY0IDIwLjI1LDIwLjI1IEMyMC4yNDk2Mjc4LDIwLjY2NDA1OTMgMTkuOTE0MDU5MywyMC45OTk2Mjc4IDE5LjUsMjEgTDE5LjUsMjEgWiIvPiYjeGE7ICAgICAgICAgICAgICAgICAgICA8cmVjdCBoZWlnaHQ9IjI0IiB3aWR0aD0iMjQiIHk9IjAiIHg9IjAiIGlkPSJfVHJhbnNwYXJlbnRfUmVjdGFuZ2xlXyIvPiYjeGE7ICAgICAgICAgICAgICAgIDwvZz4mI3hhOyAgICAgICAgICAgIDwvZz4mI3hhOyAgICAgICAgPC9nPiYjeGE7ICAgIDwvZz4mI3hhOzwvc3ZnPg==;fontFamily=IBM Plex Sans;fontSize=14;spacingTop=-7;labelPosition=center;align=center;" vertex="1" parent="NlnUNt_2MzWAzlFYxS39-26">
          <mxGeometry x="297.67" y="48" width="48" height="48" as="geometry" />
        </mxCell>
        <mxCell id="NlnUNt_2MzWAzlFYxS39-35" value="DNS" style="shape=image;verticalLabelPosition=bottom;verticalAlign=top;imageAspect=0;aspect=fixed;image=data:image/svg+xml,PHN2ZyB4bWxuczp4bGluaz0iaHR0cDovL3d3dy53My5vcmcvMTk5OS94bGluayIgeG1sbnM9Imh0dHA6Ly93d3cudzMub3JnLzIwMDAvc3ZnIiB2ZXJzaW9uPSIxLjEiIHZpZXdCb3g9IjAgMCA0OCA0OCIgaGVpZ2h0PSI0OHB4IiB3aWR0aD0iNDhweCI+JiN4YTsgICAgPHRpdGxlPmRucy1zZXJ2aWNlczwvdGl0bGU+JiN4YTsgICAgPGcgZmlsbC1ydWxlPSJldmVub2RkIiBmaWxsPSJub25lIiBzdHJva2Utd2lkdGg9IjEiIHN0cm9rZT0ibm9uZSIgaWQ9IlYyLUljb25zIj4mI3hhOyAgICAgICAgPGcgdHJhbnNmb3JtPSJ0cmFuc2xhdGUoLTU3NCwgLTIwKSIgaWQ9IklCTS9DbG91ZC9OZXR3b3JrIj4mI3hhOyAgICAgICAgICAgIDxnIHRyYW5zZm9ybT0idHJhbnNsYXRlKDU3NCwgMjApIiBpZD0iZG5zLXNlcnZpY2VzIj4mI3hhOyAgICAgICAgICAgICAgICA8cmVjdCBoZWlnaHQ9IjQ4IiB3aWR0aD0iNDgiIHk9IjAiIHg9IjAiIGZpbGw9IiMxMTkyRTgiIGlkPSJSZWN0YW5nbGUtQ29weS0zNyIvPiYjeGE7ICAgICAgICAgICAgICAgIDxnIHRyYW5zZm9ybT0idHJhbnNsYXRlKDEyLCAxMikiPiYjeGE7ICAgICAgICAgICAgICAgICAgICA8cmVjdCBoZWlnaHQ9IjEuNSIgd2lkdGg9IjcuNSIgeT0iMTUiIHg9IjE1IiBmaWxsLXJ1bGU9Im5vbnplcm8iIGZpbGw9IiNGRkZGRkYiIGlkPSJSZWN0YW5nbGUiLz4mI3hhOyAgICAgICAgICAgICAgICAgICAgPHJlY3QgaGVpZ2h0PSIxLjUiIHdpZHRoPSI0LjUiIHk9IjE4IiB4PSIxNSIgZmlsbC1ydWxlPSJub256ZXJvIiBmaWxsPSIjRkZGRkZGIiBpZD0iUmVjdGFuZ2xlIi8+JiN4YTsgICAgICAgICAgICAgICAgICAgIDxwYXRoIGZpbGwtcnVsZT0ibm9uemVybyIgZmlsbD0iI0ZGRkZGRiIgaWQ9IlNoYXBlIiBkPSJNMjIuNSwxMi43NSBMMjIuNSwxMiBDMjIuNDk1ODgyNSw3LjUzNTQwMDk4IDE5LjY2NjQzNTcsMy41NjI1NjUwNiAxNS40NDg1MzU2LDIuMDk5MDE0NTcgQzExLjIzMDYzNTUsMC42MzU0NjQwNzQgNi41NDg1Mzc2MywyLjAwMTkwMjM3IDMuNzc5OTQ4MjgsNS41MDQ0MTIxIEMxLjAxMTM1ODk0LDkuMDA2OTIxODMgMC43NjI5NTA2NjksMTMuODc4MDA4NyAzLjE2MDg3MjQ3LDE3LjY0Mzk5MjMgQzUuNTU4Nzk0MjcsMjEuNDA5OTc1OSAxMC4wNzc1OTY4LDIzLjI0NTYyNzcgMTQuNDIyNSwyMi4yMTg3NSBMMTQuMDc3NSwyMC43NTkwMjUgQzEzLjM5NjY2ODYsMjAuOTE5NTMxNSAxMi42OTk0OTUyLDIxLjAwMDM5ODUgMTIsMjEgQzExLjg1NzUsMjEgMTEuNzE4NzUsMjAuOTg2MDUgMTEuNTc3NzUsMjAuOTc5NTI1IEM5Ljk1MDM2MjM4LDE4LjUzOTkwOTEgOS4wNjIwMDg4MSwxNS42ODIyODYzIDkuMDE5NDI1LDEyLjc1IEwyMi41LDEyLjc1IFogTTIwLjk2ODg3NSwxMS4yNSBMMTYuNDgxMzI1LDExLjI1IEMxNi4zOTc5MDc3LDguNDg2Njc1OTQgMTUuNjg2NTA4Myw1Ljc3ODYwMjkxIDE0LjQwMTA1LDMuMzMxMDUgQzE4LjAyOTE0NCw0LjM0MDI1MzI0IDIwLjY0Nzk5NzksNy40OTc4NTQ2NCAyMC45Njg4NzUsMTEuMjUgWiBNMTIuNDIyMjUsMy4wMjA0NzUgQzE0LjA0OTYzNzYsNS40NjAwOTA5IDE0LjkzNzk5MTIsOC4zMTc3MTM3MiAxNC45ODA1NzUsMTEuMjUgTDkuMDE5NDI1LDExLjI1IEM5LjA2MjAwODgxLDguMzE3NzEzNzIgOS45NTAzNjIzOCw1LjQ2MDA5MDkgMTEuNTc3NzUsMy4wMjA0NzUgQzExLjcxODc1LDMuMDEzOTUgMTEuODU3NSwzIDEyLDMgQzEyLjE0MjUsMyAxMi4yODEyNSwzLjAxMzk1IDEyLjQyMjI1LDMuMDIwNDc1IFogTTkuNTk4OTUsMy4zMzEwNSBDOC4zMTM0OTE3LDUuNzc4NjAyOTEgNy42MDIwOTIyNSw4LjQ4NjY3NTk0IDcuNTE4Njc1LDExLjI1IEwzLjAzMTEyNSwxMS4yNSBDMy4zNTIwMDIxMSw3LjQ5Nzg1NDY0IDUuOTcwODU2MDUsNC4zNDAyNTMyNCA5LjU5ODk1LDMuMzMxMDUgWiBNOS41OTg5NSwyMC42Njg5NSBDNS45NzA4NTYwNSwxOS42NTk3NDY4IDMuMzUyMDAyMTEsMTYuNTAyMTQ1NCAzLjAzMTEyNSwxMi43NSBMNy41MTg2NzUsMTIuNzUgQzcuNjAyMDkyMjUsMTUuNTEzMzI0MSA4LjMxMzQ5MTcsMTguMjIxMzk3MSA5LjU5ODk1LDIwLjY2ODk1IEw5LjU5ODk1LDIwLjY2ODk1IFoiLz4mI3hhOyAgICAgICAgICAgICAgICAgICAgPHJlY3QgaGVpZ2h0PSIyNCIgd2lkdGg9IjI0IiB5PSIwIiB4PSIwIiBpZD0iX1RyYW5zcGFyZW50X1JlY3RhbmdsZV8iLz4mI3hhOyAgICAgICAgICAgICAgICA8L2c+JiN4YTsgICAgICAgICAgICA8L2c+JiN4YTsgICAgICAgIDwvZz4mI3hhOyAgICA8L2c+JiN4YTs8L3N2Zz4=;fontFamily=IBM Plex Sans;fontSize=14;spacingTop=-7;labelPosition=center;align=center;" vertex="1" parent="NlnUNt_2MzWAzlFYxS39-1">
          <mxGeometry x="760" y="48" width="48" height="48" as="geometry" />
        </mxCell>
      </root>
    </mxGraphModel>
  </diagram>
</mxfile>
